G04 #@! TF.GenerationSoftware,KiCad,Pcbnew,5.1.5+dfsg1-2build2*
G04 #@! TF.CreationDate,2020-09-26T20:23:03-04:00*
G04 #@! TF.ProjectId,ece477,65636534-3737-42e6-9b69-6361645f7063,rev?*
G04 #@! TF.SameCoordinates,Original*
G04 #@! TF.FileFunction,Soldermask,Bot*
G04 #@! TF.FilePolarity,Negative*
%FSLAX46Y46*%
G04 Gerber Fmt 4.6, Leading zero omitted, Abs format (unit mm)*
G04 Created by KiCad (PCBNEW 5.1.5+dfsg1-2build2) date 2020-09-26 20:23:03*
%MOMM*%
%LPD*%
G04 APERTURE LIST*
%ADD10C,0.100000*%
G04 APERTURE END LIST*
D10*
G36*
X91461766Y-122661899D02*
G01*
X91593888Y-122716626D01*
X91593890Y-122716627D01*
X91712798Y-122796079D01*
X91813921Y-122897202D01*
X91813922Y-122897204D01*
X91893374Y-123016112D01*
X91948101Y-123148234D01*
X91976000Y-123288494D01*
X91976000Y-123431506D01*
X91948101Y-123571766D01*
X91893374Y-123703888D01*
X91893373Y-123703890D01*
X91813921Y-123822798D01*
X91712798Y-123923921D01*
X91593890Y-124003373D01*
X91593889Y-124003374D01*
X91593888Y-124003374D01*
X91461766Y-124058101D01*
X91321506Y-124086000D01*
X91178494Y-124086000D01*
X91038234Y-124058101D01*
X90906112Y-124003374D01*
X90906111Y-124003374D01*
X90906110Y-124003373D01*
X90787202Y-123923921D01*
X90686079Y-123822798D01*
X90606627Y-123703890D01*
X90606626Y-123703888D01*
X90551899Y-123571766D01*
X90524000Y-123431506D01*
X90524000Y-123288494D01*
X90551899Y-123148234D01*
X90606626Y-123016112D01*
X90686078Y-122897204D01*
X90686079Y-122897202D01*
X90787202Y-122796079D01*
X90906110Y-122716627D01*
X90906112Y-122716626D01*
X91038234Y-122661899D01*
X91178494Y-122634000D01*
X91321506Y-122634000D01*
X91461766Y-122661899D01*
G37*
G36*
X91461766Y-120661899D02*
G01*
X91593888Y-120716626D01*
X91593890Y-120716627D01*
X91712798Y-120796079D01*
X91813921Y-120897202D01*
X91813922Y-120897204D01*
X91893374Y-121016112D01*
X91948101Y-121148234D01*
X91976000Y-121288494D01*
X91976000Y-121431506D01*
X91948101Y-121571766D01*
X91893374Y-121703888D01*
X91893373Y-121703890D01*
X91813921Y-121822798D01*
X91712798Y-121923921D01*
X91593890Y-122003373D01*
X91593889Y-122003374D01*
X91593888Y-122003374D01*
X91461766Y-122058101D01*
X91321506Y-122086000D01*
X91178494Y-122086000D01*
X91038234Y-122058101D01*
X90906112Y-122003374D01*
X90906111Y-122003374D01*
X90906110Y-122003373D01*
X90787202Y-121923921D01*
X90686079Y-121822798D01*
X90606627Y-121703890D01*
X90606626Y-121703888D01*
X90551899Y-121571766D01*
X90524000Y-121431506D01*
X90524000Y-121288494D01*
X90551899Y-121148234D01*
X90606626Y-121016112D01*
X90686078Y-120897204D01*
X90686079Y-120897202D01*
X90787202Y-120796079D01*
X90906110Y-120716627D01*
X90906112Y-120716626D01*
X91038234Y-120661899D01*
X91178494Y-120634000D01*
X91321506Y-120634000D01*
X91461766Y-120661899D01*
G37*
G36*
X91461766Y-118661899D02*
G01*
X91593888Y-118716626D01*
X91593890Y-118716627D01*
X91712798Y-118796079D01*
X91813921Y-118897202D01*
X91813922Y-118897204D01*
X91893374Y-119016112D01*
X91948101Y-119148234D01*
X91976000Y-119288494D01*
X91976000Y-119431506D01*
X91948101Y-119571766D01*
X91893374Y-119703888D01*
X91893373Y-119703890D01*
X91813921Y-119822798D01*
X91712798Y-119923921D01*
X91593890Y-120003373D01*
X91593889Y-120003374D01*
X91593888Y-120003374D01*
X91461766Y-120058101D01*
X91321506Y-120086000D01*
X91178494Y-120086000D01*
X91038234Y-120058101D01*
X90906112Y-120003374D01*
X90906111Y-120003374D01*
X90906110Y-120003373D01*
X90787202Y-119923921D01*
X90686079Y-119822798D01*
X90606627Y-119703890D01*
X90606626Y-119703888D01*
X90551899Y-119571766D01*
X90524000Y-119431506D01*
X90524000Y-119288494D01*
X90551899Y-119148234D01*
X90606626Y-119016112D01*
X90686078Y-118897204D01*
X90686079Y-118897202D01*
X90787202Y-118796079D01*
X90906110Y-118716627D01*
X90906112Y-118716626D01*
X91038234Y-118661899D01*
X91178494Y-118634000D01*
X91321506Y-118634000D01*
X91461766Y-118661899D01*
G37*
G36*
X91461766Y-116661899D02*
G01*
X91593888Y-116716626D01*
X91593890Y-116716627D01*
X91712798Y-116796079D01*
X91813921Y-116897202D01*
X91813922Y-116897204D01*
X91893374Y-117016112D01*
X91948101Y-117148234D01*
X91976000Y-117288494D01*
X91976000Y-117431506D01*
X91948101Y-117571766D01*
X91893374Y-117703888D01*
X91893373Y-117703890D01*
X91813921Y-117822798D01*
X91712798Y-117923921D01*
X91593890Y-118003373D01*
X91593889Y-118003374D01*
X91593888Y-118003374D01*
X91461766Y-118058101D01*
X91321506Y-118086000D01*
X91178494Y-118086000D01*
X91038234Y-118058101D01*
X90906112Y-118003374D01*
X90906111Y-118003374D01*
X90906110Y-118003373D01*
X90787202Y-117923921D01*
X90686079Y-117822798D01*
X90606627Y-117703890D01*
X90606626Y-117703888D01*
X90551899Y-117571766D01*
X90524000Y-117431506D01*
X90524000Y-117288494D01*
X90551899Y-117148234D01*
X90606626Y-117016112D01*
X90686078Y-116897204D01*
X90686079Y-116897202D01*
X90787202Y-116796079D01*
X90906110Y-116716627D01*
X90906112Y-116716626D01*
X91038234Y-116661899D01*
X91178494Y-116634000D01*
X91321506Y-116634000D01*
X91461766Y-116661899D01*
G37*
G36*
X146226000Y-116226000D02*
G01*
X144774000Y-116226000D01*
X144774000Y-114774000D01*
X146226000Y-114774000D01*
X146226000Y-116226000D01*
G37*
G36*
X91461766Y-114661899D02*
G01*
X91593888Y-114716626D01*
X91593890Y-114716627D01*
X91712798Y-114796079D01*
X91813921Y-114897202D01*
X91813922Y-114897204D01*
X91893374Y-115016112D01*
X91948101Y-115148234D01*
X91976000Y-115288494D01*
X91976000Y-115431506D01*
X91948101Y-115571766D01*
X91893374Y-115703888D01*
X91893373Y-115703890D01*
X91813921Y-115822798D01*
X91712798Y-115923921D01*
X91593890Y-116003373D01*
X91593889Y-116003374D01*
X91593888Y-116003374D01*
X91461766Y-116058101D01*
X91321506Y-116086000D01*
X91178494Y-116086000D01*
X91038234Y-116058101D01*
X90906112Y-116003374D01*
X90906111Y-116003374D01*
X90906110Y-116003373D01*
X90787202Y-115923921D01*
X90686079Y-115822798D01*
X90606627Y-115703890D01*
X90606626Y-115703888D01*
X90551899Y-115571766D01*
X90524000Y-115431506D01*
X90524000Y-115288494D01*
X90551899Y-115148234D01*
X90606626Y-115016112D01*
X90686078Y-114897204D01*
X90686079Y-114897202D01*
X90787202Y-114796079D01*
X90906110Y-114716627D01*
X90906112Y-114716626D01*
X91038234Y-114661899D01*
X91178494Y-114634000D01*
X91321506Y-114634000D01*
X91461766Y-114661899D01*
G37*
G36*
X145711766Y-112801899D02*
G01*
X145843888Y-112856626D01*
X145843890Y-112856627D01*
X145962798Y-112936079D01*
X146063921Y-113037202D01*
X146063922Y-113037204D01*
X146143374Y-113156112D01*
X146198101Y-113288234D01*
X146226000Y-113428494D01*
X146226000Y-113571506D01*
X146198101Y-113711766D01*
X146152110Y-113822798D01*
X146143373Y-113843890D01*
X146063921Y-113962798D01*
X145962798Y-114063921D01*
X145843890Y-114143373D01*
X145843889Y-114143374D01*
X145843888Y-114143374D01*
X145711766Y-114198101D01*
X145571506Y-114226000D01*
X145428494Y-114226000D01*
X145288234Y-114198101D01*
X145156112Y-114143374D01*
X145156111Y-114143374D01*
X145156110Y-114143373D01*
X145037202Y-114063921D01*
X144936079Y-113962798D01*
X144856627Y-113843890D01*
X144847890Y-113822798D01*
X144801899Y-113711766D01*
X144774000Y-113571506D01*
X144774000Y-113428494D01*
X144801899Y-113288234D01*
X144856626Y-113156112D01*
X144936078Y-113037204D01*
X144936079Y-113037202D01*
X145037202Y-112936079D01*
X145156110Y-112856627D01*
X145156112Y-112856626D01*
X145288234Y-112801899D01*
X145428494Y-112774000D01*
X145571506Y-112774000D01*
X145711766Y-112801899D01*
G37*
G36*
X91461766Y-112661899D02*
G01*
X91593888Y-112716626D01*
X91593890Y-112716627D01*
X91712798Y-112796079D01*
X91813921Y-112897202D01*
X91813922Y-112897204D01*
X91893374Y-113016112D01*
X91948101Y-113148234D01*
X91976000Y-113288494D01*
X91976000Y-113431506D01*
X91948101Y-113571766D01*
X91893374Y-113703888D01*
X91893373Y-113703890D01*
X91813921Y-113822798D01*
X91712798Y-113923921D01*
X91593890Y-114003373D01*
X91593889Y-114003374D01*
X91593888Y-114003374D01*
X91461766Y-114058101D01*
X91321506Y-114086000D01*
X91178494Y-114086000D01*
X91038234Y-114058101D01*
X90906112Y-114003374D01*
X90906111Y-114003374D01*
X90906110Y-114003373D01*
X90787202Y-113923921D01*
X90686079Y-113822798D01*
X90606627Y-113703890D01*
X90606626Y-113703888D01*
X90551899Y-113571766D01*
X90524000Y-113431506D01*
X90524000Y-113288494D01*
X90551899Y-113148234D01*
X90606626Y-113016112D01*
X90686078Y-112897204D01*
X90686079Y-112897202D01*
X90787202Y-112796079D01*
X90906110Y-112716627D01*
X90906112Y-112716626D01*
X91038234Y-112661899D01*
X91178494Y-112634000D01*
X91321506Y-112634000D01*
X91461766Y-112661899D01*
G37*
G36*
X145711766Y-110801899D02*
G01*
X145843888Y-110856626D01*
X145843890Y-110856627D01*
X145962798Y-110936079D01*
X146063921Y-111037202D01*
X146063922Y-111037204D01*
X146143374Y-111156112D01*
X146198101Y-111288234D01*
X146226000Y-111428494D01*
X146226000Y-111571506D01*
X146198101Y-111711766D01*
X146152110Y-111822798D01*
X146143373Y-111843890D01*
X146063921Y-111962798D01*
X145962798Y-112063921D01*
X145843890Y-112143373D01*
X145843889Y-112143374D01*
X145843888Y-112143374D01*
X145711766Y-112198101D01*
X145571506Y-112226000D01*
X145428494Y-112226000D01*
X145288234Y-112198101D01*
X145156112Y-112143374D01*
X145156111Y-112143374D01*
X145156110Y-112143373D01*
X145037202Y-112063921D01*
X144936079Y-111962798D01*
X144856627Y-111843890D01*
X144847890Y-111822798D01*
X144801899Y-111711766D01*
X144774000Y-111571506D01*
X144774000Y-111428494D01*
X144801899Y-111288234D01*
X144856626Y-111156112D01*
X144936078Y-111037204D01*
X144936079Y-111037202D01*
X145037202Y-110936079D01*
X145156110Y-110856627D01*
X145156112Y-110856626D01*
X145288234Y-110801899D01*
X145428494Y-110774000D01*
X145571506Y-110774000D01*
X145711766Y-110801899D01*
G37*
G36*
X91461766Y-110661899D02*
G01*
X91593888Y-110716626D01*
X91593890Y-110716627D01*
X91712798Y-110796079D01*
X91813921Y-110897202D01*
X91813922Y-110897204D01*
X91893374Y-111016112D01*
X91948101Y-111148234D01*
X91976000Y-111288494D01*
X91976000Y-111431506D01*
X91948101Y-111571766D01*
X91893374Y-111703888D01*
X91893373Y-111703890D01*
X91813921Y-111822798D01*
X91712798Y-111923921D01*
X91593890Y-112003373D01*
X91593889Y-112003374D01*
X91593888Y-112003374D01*
X91461766Y-112058101D01*
X91321506Y-112086000D01*
X91178494Y-112086000D01*
X91038234Y-112058101D01*
X90906112Y-112003374D01*
X90906111Y-112003374D01*
X90906110Y-112003373D01*
X90787202Y-111923921D01*
X90686079Y-111822798D01*
X90606627Y-111703890D01*
X90606626Y-111703888D01*
X90551899Y-111571766D01*
X90524000Y-111431506D01*
X90524000Y-111288494D01*
X90551899Y-111148234D01*
X90606626Y-111016112D01*
X90686078Y-110897204D01*
X90686079Y-110897202D01*
X90787202Y-110796079D01*
X90906110Y-110716627D01*
X90906112Y-110716626D01*
X91038234Y-110661899D01*
X91178494Y-110634000D01*
X91321506Y-110634000D01*
X91461766Y-110661899D01*
G37*
G36*
X139211766Y-109301899D02*
G01*
X139343888Y-109356626D01*
X139343890Y-109356627D01*
X139462798Y-109436079D01*
X139563921Y-109537202D01*
X139586842Y-109571506D01*
X139643374Y-109656112D01*
X139698101Y-109788234D01*
X139726000Y-109928494D01*
X139726000Y-110071506D01*
X139698101Y-110211766D01*
X139643374Y-110343888D01*
X139643373Y-110343890D01*
X139563921Y-110462798D01*
X139462798Y-110563921D01*
X139343890Y-110643373D01*
X139343889Y-110643374D01*
X139343888Y-110643374D01*
X139211766Y-110698101D01*
X139071506Y-110726000D01*
X138928494Y-110726000D01*
X138788234Y-110698101D01*
X138656112Y-110643374D01*
X138656111Y-110643374D01*
X138656110Y-110643373D01*
X138537202Y-110563921D01*
X138436079Y-110462798D01*
X138356627Y-110343890D01*
X138356626Y-110343888D01*
X138301899Y-110211766D01*
X138274000Y-110071506D01*
X138274000Y-109928494D01*
X138301899Y-109788234D01*
X138356626Y-109656112D01*
X138413158Y-109571506D01*
X138436079Y-109537202D01*
X138537202Y-109436079D01*
X138656110Y-109356627D01*
X138656112Y-109356626D01*
X138788234Y-109301899D01*
X138928494Y-109274000D01*
X139071506Y-109274000D01*
X139211766Y-109301899D01*
G37*
G36*
X145711766Y-108801899D02*
G01*
X145843888Y-108856626D01*
X145843890Y-108856627D01*
X145962798Y-108936079D01*
X146063921Y-109037202D01*
X146063922Y-109037204D01*
X146143374Y-109156112D01*
X146198101Y-109288234D01*
X146226000Y-109428494D01*
X146226000Y-109571506D01*
X146198101Y-109711766D01*
X146143374Y-109843888D01*
X146143373Y-109843890D01*
X146063921Y-109962798D01*
X145962798Y-110063921D01*
X145843890Y-110143373D01*
X145843889Y-110143374D01*
X145843888Y-110143374D01*
X145711766Y-110198101D01*
X145571506Y-110226000D01*
X145428494Y-110226000D01*
X145288234Y-110198101D01*
X145156112Y-110143374D01*
X145156111Y-110143374D01*
X145156110Y-110143373D01*
X145037202Y-110063921D01*
X144936079Y-109962798D01*
X144856627Y-109843890D01*
X144856626Y-109843888D01*
X144801899Y-109711766D01*
X144774000Y-109571506D01*
X144774000Y-109428494D01*
X144801899Y-109288234D01*
X144856626Y-109156112D01*
X144936078Y-109037204D01*
X144936079Y-109037202D01*
X145037202Y-108936079D01*
X145156110Y-108856627D01*
X145156112Y-108856626D01*
X145288234Y-108801899D01*
X145428494Y-108774000D01*
X145571506Y-108774000D01*
X145711766Y-108801899D01*
G37*
G36*
X91976000Y-110086000D02*
G01*
X90524000Y-110086000D01*
X90524000Y-108634000D01*
X91976000Y-108634000D01*
X91976000Y-110086000D01*
G37*
G36*
X139726000Y-108726000D02*
G01*
X138274000Y-108726000D01*
X138274000Y-107274000D01*
X139726000Y-107274000D01*
X139726000Y-108726000D01*
G37*
G36*
X145711766Y-106801899D02*
G01*
X145843888Y-106856626D01*
X145843890Y-106856627D01*
X145962798Y-106936079D01*
X146063921Y-107037202D01*
X146063922Y-107037204D01*
X146143374Y-107156112D01*
X146198101Y-107288234D01*
X146226000Y-107428494D01*
X146226000Y-107571506D01*
X146198101Y-107711766D01*
X146143374Y-107843888D01*
X146143373Y-107843890D01*
X146063921Y-107962798D01*
X145962798Y-108063921D01*
X145843890Y-108143373D01*
X145843889Y-108143374D01*
X145843888Y-108143374D01*
X145711766Y-108198101D01*
X145571506Y-108226000D01*
X145428494Y-108226000D01*
X145288234Y-108198101D01*
X145156112Y-108143374D01*
X145156111Y-108143374D01*
X145156110Y-108143373D01*
X145037202Y-108063921D01*
X144936079Y-107962798D01*
X144856627Y-107843890D01*
X144856626Y-107843888D01*
X144801899Y-107711766D01*
X144774000Y-107571506D01*
X144774000Y-107428494D01*
X144801899Y-107288234D01*
X144856626Y-107156112D01*
X144936078Y-107037204D01*
X144936079Y-107037202D01*
X145037202Y-106936079D01*
X145156110Y-106856627D01*
X145156112Y-106856626D01*
X145288234Y-106801899D01*
X145428494Y-106774000D01*
X145571506Y-106774000D01*
X145711766Y-106801899D01*
G37*
M02*
