M48
; DRILL file {KiCad 5.1.5+dfsg1-2build2} date Sat 26 Sep 2020 08:23:31 PM EDT
; FORMAT={-:-/ absolute / inch / decimal}
; #@! TF.CreationDate,2020-09-26T20:23:31-04:00
; #@! TF.GenerationSoftware,Kicad,Pcbnew,5.1.5+dfsg1-2build2
FMAT,2
INCH
T1C0.0157
T2C0.0315
%
G90
G05
T1
X3.9961Y-4.5472
X4.2126Y-4.7638
X4.4961Y-4.811
X4.5748Y-4.874
X4.8071Y-4.4055
X4.8228Y-4.8031
X4.874Y-4.3937
X4.9213Y-4.8425
X4.9528Y-4.8031
X4.9551Y-4.661
X4.9764Y-4.4409
X4.9843Y-4.7323
X4.9921Y-4.9449
X5.0425Y-4.5055
X5.3228Y-4.7165
X5.3465Y-4.7638
X5.3543Y-4.5866
X5.5315Y-4.7638
T2
X3.5925Y-4.3055
X3.5925Y-4.3843
X3.5925Y-4.463
X3.5925Y-4.5417
X3.5925Y-4.6205
X3.5925Y-4.6992
X3.5925Y-4.778
X3.5925Y-4.8567
X5.7283Y-4.2323
X5.7283Y-4.311
X5.7283Y-4.3898
X5.7283Y-4.4685
X5.7283Y-4.5472
X5.4724Y-4.252
X5.4724Y-4.3307
T0
M30
