G04 #@! TF.GenerationSoftware,KiCad,Pcbnew,5.1.5+dfsg1-2build2*
G04 #@! TF.CreationDate,2020-09-26T20:23:03-04:00*
G04 #@! TF.ProjectId,ece477,65636534-3737-42e6-9b69-6361645f7063,rev?*
G04 #@! TF.SameCoordinates,Original*
G04 #@! TF.FileFunction,Legend,Top*
G04 #@! TF.FilePolarity,Positive*
%FSLAX46Y46*%
G04 Gerber Fmt 4.6, Leading zero omitted, Abs format (unit mm)*
G04 Created by KiCad (PCBNEW 5.1.5+dfsg1-2build2) date 2020-09-26 20:23:03*
%MOMM*%
%LPD*%
G04 APERTURE LIST*
%ADD10C,0.120000*%
%ADD11C,0.150000*%
G04 APERTURE END LIST*
D10*
X93790000Y-106820000D02*
X121730000Y-106820000D01*
X121730000Y-106820000D02*
X121730000Y-124600000D01*
X93790000Y-124600000D02*
X93790000Y-106820000D01*
X121730000Y-124600000D02*
X93790000Y-124600000D01*
X146860000Y-84220000D02*
X146860000Y-104540000D01*
X89710000Y-104540000D02*
X89710000Y-84220000D01*
X146860000Y-104540000D02*
X89710000Y-104540000D01*
X89710000Y-84220000D02*
X146860000Y-84220000D01*
X138240000Y-114240000D02*
X138240000Y-114940000D01*
X138240000Y-117760000D02*
X138240000Y-117060000D01*
X140870563Y-117760000D02*
X138240000Y-117760000D01*
X140870563Y-114240000D02*
X138240000Y-114240000D01*
X141570563Y-117060000D02*
X140870563Y-117760000D01*
X141570563Y-114940000D02*
X140870563Y-114240000D01*
X142375000Y-117435000D02*
X142000000Y-117435000D01*
X142187500Y-117622500D02*
X142187500Y-117247500D01*
X146560000Y-106440000D02*
X144440000Y-106440000D01*
X146560000Y-114500000D02*
X146560000Y-106440000D01*
X144440000Y-114500000D02*
X144440000Y-106440000D01*
X146560000Y-114500000D02*
X144440000Y-114500000D01*
X146560000Y-115500000D02*
X146560000Y-116560000D01*
X146560000Y-116560000D02*
X145500000Y-116560000D01*
X137940000Y-106940000D02*
X139000000Y-106940000D01*
X137940000Y-108000000D02*
X137940000Y-106940000D01*
X137940000Y-109000000D02*
X140060000Y-109000000D01*
X140060000Y-109000000D02*
X140060000Y-111060000D01*
X137940000Y-109000000D02*
X137940000Y-111060000D01*
X137940000Y-111060000D02*
X140060000Y-111060000D01*
X90190000Y-124420000D02*
X92310000Y-124420000D01*
X90190000Y-110360000D02*
X90190000Y-124420000D01*
X92310000Y-110360000D02*
X92310000Y-124420000D01*
X90190000Y-110360000D02*
X92310000Y-110360000D01*
X90190000Y-109360000D02*
X90190000Y-108300000D01*
X90190000Y-108300000D02*
X91250000Y-108300000D01*
X134030000Y-111470000D02*
X127210000Y-111470000D01*
X134030000Y-107250000D02*
X127210000Y-107250000D01*
X134030000Y-111470000D02*
X134030000Y-110160000D01*
X134030000Y-108560000D02*
X134030000Y-107250000D01*
X127210000Y-111470000D02*
X127210000Y-110160000D01*
X127210000Y-108560000D02*
X127210000Y-107250000D01*
X134270000Y-111710000D02*
X132887000Y-111710000D01*
X134270000Y-111710000D02*
X134270000Y-110327000D01*
X132430000Y-109995000D02*
X132430000Y-108725000D01*
X132430000Y-108725000D02*
X128810000Y-108725000D01*
X128810000Y-108725000D02*
X128810000Y-109995000D01*
X128810000Y-109995000D02*
X132430000Y-109995000D01*
X132430000Y-109875000D02*
X131223333Y-109875000D01*
X132430000Y-109755000D02*
X131223333Y-109755000D01*
X132430000Y-109635000D02*
X131223333Y-109635000D01*
X132430000Y-109515000D02*
X131223333Y-109515000D01*
X132430000Y-109395000D02*
X131223333Y-109395000D01*
X132430000Y-109275000D02*
X131223333Y-109275000D01*
X132430000Y-109155000D02*
X131223333Y-109155000D01*
X132430000Y-109035000D02*
X131223333Y-109035000D01*
X132430000Y-108915000D02*
X131223333Y-108915000D01*
X132430000Y-108795000D02*
X131223333Y-108795000D01*
X131223333Y-109995000D02*
X131223333Y-108725000D01*
X132935000Y-119390000D02*
X133610000Y-119390000D01*
X129065000Y-124610000D02*
X128390000Y-124610000D01*
X132935000Y-124610000D02*
X133610000Y-124610000D01*
X117110000Y-108865000D02*
X117110000Y-107890000D01*
X108890000Y-116110000D02*
X109865000Y-116110000D01*
X108890000Y-115135000D02*
X108890000Y-116110000D01*
X108890000Y-107890000D02*
X109865000Y-107890000D01*
X108890000Y-108865000D02*
X108890000Y-107890000D01*
X117110000Y-116110000D02*
X116135000Y-116110000D01*
X117110000Y-115135000D02*
X117110000Y-116110000D01*
D11*
X139833333Y-113857142D02*
X139785714Y-113904761D01*
X139642857Y-113952380D01*
X139547619Y-113952380D01*
X139404761Y-113904761D01*
X139309523Y-113809523D01*
X139261904Y-113714285D01*
X139214285Y-113523809D01*
X139214285Y-113380952D01*
X139261904Y-113190476D01*
X139309523Y-113095238D01*
X139404761Y-113000000D01*
X139547619Y-112952380D01*
X139642857Y-112952380D01*
X139785714Y-113000000D01*
X139833333Y-113047619D01*
X140785714Y-113952380D02*
X140214285Y-113952380D01*
X140500000Y-113952380D02*
X140500000Y-112952380D01*
X140404761Y-113095238D01*
X140309523Y-113190476D01*
X140214285Y-113238095D01*
X145166666Y-117012380D02*
X145166666Y-117726666D01*
X145119047Y-117869523D01*
X145023809Y-117964761D01*
X144880952Y-118012380D01*
X144785714Y-118012380D01*
X146166666Y-118012380D02*
X145595238Y-118012380D01*
X145880952Y-118012380D02*
X145880952Y-117012380D01*
X145785714Y-117155238D01*
X145690476Y-117250476D01*
X145595238Y-117298095D01*
X129503333Y-116162380D02*
X129170000Y-115686190D01*
X128931904Y-116162380D02*
X128931904Y-115162380D01*
X129312857Y-115162380D01*
X129408095Y-115210000D01*
X129455714Y-115257619D01*
X129503333Y-115352857D01*
X129503333Y-115495714D01*
X129455714Y-115590952D01*
X129408095Y-115638571D01*
X129312857Y-115686190D01*
X128931904Y-115686190D01*
X129884285Y-115257619D02*
X129931904Y-115210000D01*
X130027142Y-115162380D01*
X130265238Y-115162380D01*
X130360476Y-115210000D01*
X130408095Y-115257619D01*
X130455714Y-115352857D01*
X130455714Y-115448095D01*
X130408095Y-115590952D01*
X129836666Y-116162380D01*
X130455714Y-116162380D01*
X138214285Y-111928571D02*
X138357142Y-111976190D01*
X138404761Y-112023809D01*
X138452380Y-112119047D01*
X138452380Y-112261904D01*
X138404761Y-112357142D01*
X138357142Y-112404761D01*
X138261904Y-112452380D01*
X137880952Y-112452380D01*
X137880952Y-111452380D01*
X138214285Y-111452380D01*
X138309523Y-111500000D01*
X138357142Y-111547619D01*
X138404761Y-111642857D01*
X138404761Y-111738095D01*
X138357142Y-111833333D01*
X138309523Y-111880952D01*
X138214285Y-111928571D01*
X137880952Y-111928571D01*
X138738095Y-111452380D02*
X139309523Y-111452380D01*
X139023809Y-112452380D02*
X139023809Y-111452380D01*
X140166666Y-112452380D02*
X139595238Y-112452380D01*
X139880952Y-112452380D02*
X139880952Y-111452380D01*
X139785714Y-111595238D01*
X139690476Y-111690476D01*
X139595238Y-111738095D01*
X137159047Y-107571428D02*
X137920952Y-107571428D01*
X137540000Y-107952380D02*
X137540000Y-107190476D01*
X90916666Y-106752380D02*
X90916666Y-107466666D01*
X90869047Y-107609523D01*
X90773809Y-107704761D01*
X90630952Y-107752380D01*
X90535714Y-107752380D01*
X91345238Y-106847619D02*
X91392857Y-106800000D01*
X91488095Y-106752380D01*
X91726190Y-106752380D01*
X91821428Y-106800000D01*
X91869047Y-106847619D01*
X91916666Y-106942857D01*
X91916666Y-107038095D01*
X91869047Y-107180952D01*
X91297619Y-107752380D01*
X91916666Y-107752380D01*
X123833333Y-116452380D02*
X123500000Y-115976190D01*
X123261904Y-116452380D02*
X123261904Y-115452380D01*
X123642857Y-115452380D01*
X123738095Y-115500000D01*
X123785714Y-115547619D01*
X123833333Y-115642857D01*
X123833333Y-115785714D01*
X123785714Y-115880952D01*
X123738095Y-115928571D01*
X123642857Y-115976190D01*
X123261904Y-115976190D01*
X124785714Y-116452380D02*
X124214285Y-116452380D01*
X124500000Y-116452380D02*
X124500000Y-115452380D01*
X124404761Y-115595238D01*
X124309523Y-115690476D01*
X124214285Y-115738095D01*
X132993333Y-116162380D02*
X132660000Y-115686190D01*
X132421904Y-116162380D02*
X132421904Y-115162380D01*
X132802857Y-115162380D01*
X132898095Y-115210000D01*
X132945714Y-115257619D01*
X132993333Y-115352857D01*
X132993333Y-115495714D01*
X132945714Y-115590952D01*
X132898095Y-115638571D01*
X132802857Y-115686190D01*
X132421904Y-115686190D01*
X133326666Y-115162380D02*
X133945714Y-115162380D01*
X133612380Y-115543333D01*
X133755238Y-115543333D01*
X133850476Y-115590952D01*
X133898095Y-115638571D01*
X133945714Y-115733809D01*
X133945714Y-115971904D01*
X133898095Y-116067142D01*
X133850476Y-116114761D01*
X133755238Y-116162380D01*
X133469523Y-116162380D01*
X133374285Y-116114761D01*
X133326666Y-116067142D01*
X129286666Y-112874761D02*
X129429523Y-112922380D01*
X129667619Y-112922380D01*
X129762857Y-112874761D01*
X129810476Y-112827142D01*
X129858095Y-112731904D01*
X129858095Y-112636666D01*
X129810476Y-112541428D01*
X129762857Y-112493809D01*
X129667619Y-112446190D01*
X129477142Y-112398571D01*
X129381904Y-112350952D01*
X129334285Y-112303333D01*
X129286666Y-112208095D01*
X129286666Y-112112857D01*
X129334285Y-112017619D01*
X129381904Y-111970000D01*
X129477142Y-111922380D01*
X129715238Y-111922380D01*
X129858095Y-111970000D01*
X130191428Y-111922380D02*
X130429523Y-112922380D01*
X130620000Y-112208095D01*
X130810476Y-112922380D01*
X131048571Y-111922380D01*
X131953333Y-112922380D02*
X131381904Y-112922380D01*
X131667619Y-112922380D02*
X131667619Y-111922380D01*
X131572380Y-112065238D01*
X131477142Y-112160476D01*
X131381904Y-112208095D01*
X130238095Y-125262380D02*
X130238095Y-126071904D01*
X130285714Y-126167142D01*
X130333333Y-126214761D01*
X130428571Y-126262380D01*
X130619047Y-126262380D01*
X130714285Y-126214761D01*
X130761904Y-126167142D01*
X130809523Y-126071904D01*
X130809523Y-125262380D01*
X131809523Y-126262380D02*
X131238095Y-126262380D01*
X131523809Y-126262380D02*
X131523809Y-125262380D01*
X131428571Y-125405238D01*
X131333333Y-125500476D01*
X131238095Y-125548095D01*
X118238095Y-111952380D02*
X118238095Y-112761904D01*
X118285714Y-112857142D01*
X118333333Y-112904761D01*
X118428571Y-112952380D01*
X118619047Y-112952380D01*
X118714285Y-112904761D01*
X118761904Y-112857142D01*
X118809523Y-112761904D01*
X118809523Y-111952380D01*
X119238095Y-112047619D02*
X119285714Y-112000000D01*
X119380952Y-111952380D01*
X119619047Y-111952380D01*
X119714285Y-112000000D01*
X119761904Y-112047619D01*
X119809523Y-112142857D01*
X119809523Y-112238095D01*
X119761904Y-112380952D01*
X119190476Y-112952380D01*
X119809523Y-112952380D01*
M02*
