G04 #@! TF.GenerationSoftware,KiCad,Pcbnew,5.1.5+dfsg1-2build2*
G04 #@! TF.CreationDate,2020-09-26T20:23:03-04:00*
G04 #@! TF.ProjectId,ece477,65636534-3737-42e6-9b69-6361645f7063,rev?*
G04 #@! TF.SameCoordinates,Original*
G04 #@! TF.FileFunction,Copper,L2,Bot*
G04 #@! TF.FilePolarity,Positive*
%FSLAX46Y46*%
G04 Gerber Fmt 4.6, Leading zero omitted, Abs format (unit mm)*
G04 Created by KiCad (PCBNEW 5.1.5+dfsg1-2build2) date 2020-09-26 20:23:03*
%MOMM*%
%LPD*%
G04 APERTURE LIST*
%ADD10C,0.300000*%
%ADD11R,1.350000X1.350000*%
%ADD12O,1.350000X1.350000*%
%ADD13C,0.800000*%
%ADD14C,0.250000*%
G04 APERTURE END LIST*
D10*
X122928571Y-109964285D02*
X122928571Y-110678571D01*
X123428571Y-109178571D02*
X122928571Y-109964285D01*
X122428571Y-109178571D01*
X121928571Y-110678571D02*
X121928571Y-109178571D01*
X121571428Y-109178571D01*
X121357142Y-109250000D01*
X121214285Y-109392857D01*
X121142857Y-109535714D01*
X121071428Y-109821428D01*
X121071428Y-110035714D01*
X121142857Y-110321428D01*
X121214285Y-110464285D01*
X121357142Y-110607142D01*
X121571428Y-110678571D01*
X121928571Y-110678571D01*
X119714285Y-110678571D02*
X120428571Y-110678571D01*
X120428571Y-109178571D01*
X118214285Y-109178571D02*
X117285714Y-109178571D01*
X117785714Y-109750000D01*
X117571428Y-109750000D01*
X117428571Y-109821428D01*
X117357142Y-109892857D01*
X117285714Y-110035714D01*
X117285714Y-110392857D01*
X117357142Y-110535714D01*
X117428571Y-110607142D01*
X117571428Y-110678571D01*
X118000000Y-110678571D01*
X118142857Y-110607142D01*
X118214285Y-110535714D01*
X116642857Y-110535714D02*
X116571428Y-110607142D01*
X116642857Y-110678571D01*
X116714285Y-110607142D01*
X116642857Y-110535714D01*
X116642857Y-110678571D01*
X116071428Y-109178571D02*
X115071428Y-109178571D01*
X115714285Y-110678571D01*
X113571428Y-109178571D02*
X113071428Y-110678571D01*
X112571428Y-109178571D01*
D11*
X145500000Y-115500000D03*
D12*
X145500000Y-113500000D03*
X145500000Y-111500000D03*
X145500000Y-109500000D03*
X145500000Y-107500000D03*
X139000000Y-110000000D03*
D11*
X139000000Y-108000000D03*
X91250000Y-109360000D03*
D12*
X91250000Y-111360000D03*
X91250000Y-113360000D03*
X91250000Y-115360000D03*
X91250000Y-117360000D03*
X91250000Y-119360000D03*
X91250000Y-121360000D03*
X91250000Y-123360000D03*
D13*
X101500000Y-115500000D03*
X107000000Y-121000000D03*
X136000000Y-116500000D03*
X140500000Y-121000000D03*
X122500000Y-122000000D03*
X125800000Y-122000000D03*
X114200000Y-122200000D03*
X116200000Y-123800000D03*
X125000000Y-123000000D03*
X126800000Y-125600000D03*
X128080000Y-114440000D03*
X125860000Y-118390000D03*
X126600000Y-120200000D03*
X123800000Y-111600000D03*
X122100000Y-111900000D03*
X135200000Y-119800000D03*
X126400000Y-112800000D03*
X135800000Y-121000000D03*
D14*
X101500000Y-115500000D02*
X107000000Y-121000000D01*
X107000000Y-121000000D02*
X107000000Y-121000000D01*
X136000000Y-116500000D02*
X140500000Y-121000000D01*
X140500000Y-121000000D02*
X140500000Y-121000000D01*
X122500000Y-122000000D02*
X125800000Y-122000000D01*
X125800000Y-122000000D02*
X125800000Y-122000000D01*
X114200000Y-122200000D02*
X115800000Y-123800000D01*
X115800000Y-123800000D02*
X116200000Y-123800000D01*
X116200000Y-123800000D02*
X116200000Y-123800000D01*
X125000000Y-123000000D02*
X125000000Y-123800000D01*
X125000000Y-123800000D02*
X126800000Y-125600000D01*
X126800000Y-125600000D02*
X126800000Y-125600000D01*
X128080000Y-114440000D02*
X128080000Y-114440000D01*
X125860000Y-118390000D02*
X125860000Y-118955685D01*
X125860000Y-118955685D02*
X125860000Y-119460000D01*
X125860000Y-119460000D02*
X126600000Y-120200000D01*
X126600000Y-120200000D02*
X126600000Y-120200000D01*
X126640000Y-114440000D02*
X128080000Y-114440000D01*
X123800000Y-111600000D02*
X126640000Y-114440000D01*
X122100000Y-111900000D02*
X128400000Y-118200000D01*
X128400000Y-118200000D02*
X131800000Y-118200000D01*
X131800000Y-118200000D02*
X133600000Y-118200000D01*
X133600000Y-118200000D02*
X135200000Y-119800000D01*
X135200000Y-119800000D02*
X135200000Y-119800000D01*
X136800000Y-120200000D02*
X136200000Y-120800000D01*
X136800000Y-119000000D02*
X136800000Y-120200000D01*
X130600000Y-112800000D02*
X136800000Y-119000000D01*
X126400000Y-112800000D02*
X130600000Y-112800000D01*
X136200000Y-120800000D02*
X136000000Y-120800000D01*
X136000000Y-120800000D02*
X135800000Y-121000000D01*
X135800000Y-121000000D02*
X135800000Y-121000000D01*
M02*
