G04 #@! TF.GenerationSoftware,KiCad,Pcbnew,5.1.5+dfsg1-2build2*
G04 #@! TF.CreationDate,2020-09-26T20:23:03-04:00*
G04 #@! TF.ProjectId,ece477,65636534-3737-42e6-9b69-6361645f7063,rev?*
G04 #@! TF.SameCoordinates,Original*
G04 #@! TF.FileFunction,Soldermask,Top*
G04 #@! TF.FilePolarity,Negative*
%FSLAX46Y46*%
G04 Gerber Fmt 4.6, Leading zero omitted, Abs format (unit mm)*
G04 Created by KiCad (PCBNEW 5.1.5+dfsg1-2build2) date 2020-09-26 20:23:03*
%MOMM*%
%LPD*%
G04 APERTURE LIST*
%ADD10C,0.100000*%
G04 APERTURE END LIST*
D10*
G36*
X129567189Y-119100018D02*
G01*
X129587749Y-119104107D01*
X129612253Y-119104107D01*
X129632812Y-119100018D01*
X129643143Y-119099000D01*
X129906857Y-119099000D01*
X129917189Y-119100018D01*
X129937749Y-119104107D01*
X129962253Y-119104107D01*
X129982812Y-119100018D01*
X129993143Y-119099000D01*
X130256857Y-119099000D01*
X130267189Y-119100018D01*
X130287749Y-119104107D01*
X130312253Y-119104107D01*
X130332812Y-119100018D01*
X130343143Y-119099000D01*
X130606857Y-119099000D01*
X130617189Y-119100018D01*
X130637749Y-119104107D01*
X130662253Y-119104107D01*
X130682812Y-119100018D01*
X130693143Y-119099000D01*
X130956857Y-119099000D01*
X130967189Y-119100018D01*
X130987749Y-119104107D01*
X131012253Y-119104107D01*
X131032812Y-119100018D01*
X131043143Y-119099000D01*
X131306857Y-119099000D01*
X131317189Y-119100018D01*
X131337749Y-119104107D01*
X131362253Y-119104107D01*
X131382812Y-119100018D01*
X131393143Y-119099000D01*
X131656857Y-119099000D01*
X131667189Y-119100018D01*
X131687749Y-119104107D01*
X131712253Y-119104107D01*
X131732812Y-119100018D01*
X131743143Y-119099000D01*
X132006857Y-119099000D01*
X132017189Y-119100018D01*
X132037749Y-119104107D01*
X132062253Y-119104107D01*
X132082812Y-119100018D01*
X132093143Y-119099000D01*
X132356857Y-119099000D01*
X132367189Y-119100018D01*
X132387749Y-119104107D01*
X132412253Y-119104107D01*
X132432812Y-119100018D01*
X132443143Y-119099000D01*
X132706857Y-119099000D01*
X132715416Y-119099843D01*
X132717745Y-119100550D01*
X132719887Y-119101695D01*
X132721765Y-119103235D01*
X132723305Y-119105113D01*
X132724450Y-119107255D01*
X132725157Y-119109584D01*
X132726000Y-119118143D01*
X132726000Y-119988000D01*
X132726121Y-119988000D01*
X132726120Y-120005123D01*
X132730899Y-120029157D01*
X132740274Y-120051796D01*
X132753887Y-120072171D01*
X132771212Y-120089500D01*
X132791586Y-120103115D01*
X132804018Y-120108264D01*
X132815078Y-120114176D01*
X132837717Y-120123553D01*
X132861750Y-120128333D01*
X132886254Y-120128333D01*
X132910287Y-120123552D01*
X132932926Y-120114175D01*
X132953300Y-120100561D01*
X132970627Y-120083234D01*
X132984241Y-120062859D01*
X132993618Y-120040220D01*
X132999000Y-120003936D01*
X132999000Y-119943143D01*
X133000018Y-119932811D01*
X133004107Y-119912251D01*
X133004107Y-119887747D01*
X133000018Y-119867188D01*
X132999000Y-119856857D01*
X132999000Y-119593143D01*
X132999843Y-119584584D01*
X133000550Y-119582255D01*
X133001695Y-119580113D01*
X133003235Y-119578235D01*
X133005113Y-119576695D01*
X133007255Y-119575550D01*
X133009584Y-119574843D01*
X133018143Y-119574000D01*
X133881857Y-119574000D01*
X133890416Y-119574843D01*
X133892745Y-119575550D01*
X133894887Y-119576695D01*
X133896765Y-119578235D01*
X133898305Y-119580113D01*
X133899450Y-119582255D01*
X133900157Y-119584584D01*
X133901000Y-119593143D01*
X133901000Y-119856857D01*
X133899982Y-119867189D01*
X133895893Y-119887749D01*
X133895893Y-119912253D01*
X133899982Y-119932812D01*
X133901000Y-119943143D01*
X133901000Y-120206857D01*
X133899982Y-120217189D01*
X133895893Y-120237749D01*
X133895893Y-120262253D01*
X133899982Y-120282812D01*
X133901000Y-120293143D01*
X133901000Y-120556857D01*
X133899982Y-120567189D01*
X133895893Y-120587749D01*
X133895893Y-120612253D01*
X133899982Y-120632812D01*
X133901000Y-120643143D01*
X133901000Y-120906857D01*
X133899982Y-120917189D01*
X133895893Y-120937749D01*
X133895893Y-120962253D01*
X133899982Y-120982812D01*
X133901000Y-120993143D01*
X133901000Y-121256857D01*
X133899982Y-121267189D01*
X133895893Y-121287749D01*
X133895893Y-121312253D01*
X133899982Y-121332812D01*
X133901000Y-121343143D01*
X133901000Y-121606857D01*
X133899982Y-121617189D01*
X133895893Y-121637749D01*
X133895893Y-121662253D01*
X133899982Y-121682812D01*
X133901000Y-121693143D01*
X133901000Y-121956857D01*
X133899982Y-121967189D01*
X133895893Y-121987749D01*
X133895893Y-122012253D01*
X133899982Y-122032812D01*
X133901000Y-122043143D01*
X133901000Y-122306857D01*
X133899982Y-122317189D01*
X133895893Y-122337749D01*
X133895893Y-122362253D01*
X133899982Y-122382812D01*
X133901000Y-122393143D01*
X133901000Y-122656857D01*
X133899982Y-122667189D01*
X133895893Y-122687749D01*
X133895893Y-122712253D01*
X133899982Y-122732812D01*
X133901000Y-122743143D01*
X133901000Y-123006857D01*
X133899982Y-123017189D01*
X133895893Y-123037749D01*
X133895893Y-123062253D01*
X133899982Y-123082812D01*
X133901000Y-123093143D01*
X133901000Y-123356857D01*
X133899982Y-123367189D01*
X133895893Y-123387749D01*
X133895893Y-123412253D01*
X133899982Y-123432812D01*
X133901000Y-123443143D01*
X133901000Y-123706857D01*
X133899982Y-123717189D01*
X133895893Y-123737749D01*
X133895893Y-123762253D01*
X133899982Y-123782812D01*
X133901000Y-123793143D01*
X133901000Y-124056857D01*
X133899982Y-124067189D01*
X133895893Y-124087749D01*
X133895893Y-124112253D01*
X133899982Y-124132812D01*
X133901000Y-124143143D01*
X133901000Y-124406857D01*
X133900157Y-124415416D01*
X133899450Y-124417745D01*
X133898305Y-124419887D01*
X133896765Y-124421765D01*
X133894887Y-124423305D01*
X133892745Y-124424450D01*
X133890416Y-124425157D01*
X133881857Y-124426000D01*
X133018143Y-124426000D01*
X133009584Y-124425157D01*
X133007255Y-124424450D01*
X133005113Y-124423305D01*
X133003235Y-124421765D01*
X133001695Y-124419887D01*
X133000550Y-124417745D01*
X132999843Y-124415416D01*
X132999000Y-124406857D01*
X132999000Y-124143143D01*
X133000018Y-124132811D01*
X133004107Y-124112251D01*
X133004107Y-124087747D01*
X133000018Y-124067188D01*
X132999000Y-124056857D01*
X132999000Y-123996064D01*
X132996598Y-123971678D01*
X132989485Y-123948229D01*
X132977934Y-123926618D01*
X132962389Y-123907676D01*
X132943447Y-123892131D01*
X132921836Y-123880580D01*
X132898387Y-123873467D01*
X132874001Y-123871065D01*
X132849615Y-123873467D01*
X132815078Y-123885824D01*
X132804024Y-123891732D01*
X132791599Y-123896878D01*
X132771224Y-123910491D01*
X132753896Y-123927817D01*
X132740282Y-123948190D01*
X132730903Y-123970829D01*
X132726122Y-123994862D01*
X132726122Y-124012000D01*
X132726000Y-124012000D01*
X132726000Y-124881857D01*
X132725157Y-124890416D01*
X132724450Y-124892745D01*
X132723305Y-124894887D01*
X132721765Y-124896765D01*
X132719887Y-124898305D01*
X132717745Y-124899450D01*
X132715416Y-124900157D01*
X132706857Y-124901000D01*
X132443143Y-124901000D01*
X132432811Y-124899982D01*
X132412251Y-124895893D01*
X132387747Y-124895893D01*
X132367188Y-124899982D01*
X132356857Y-124901000D01*
X132093143Y-124901000D01*
X132082811Y-124899982D01*
X132062251Y-124895893D01*
X132037747Y-124895893D01*
X132017188Y-124899982D01*
X132006857Y-124901000D01*
X131743143Y-124901000D01*
X131732811Y-124899982D01*
X131712251Y-124895893D01*
X131687747Y-124895893D01*
X131667188Y-124899982D01*
X131656857Y-124901000D01*
X131393143Y-124901000D01*
X131382811Y-124899982D01*
X131362251Y-124895893D01*
X131337747Y-124895893D01*
X131317188Y-124899982D01*
X131306857Y-124901000D01*
X131043143Y-124901000D01*
X131032811Y-124899982D01*
X131012251Y-124895893D01*
X130987747Y-124895893D01*
X130967188Y-124899982D01*
X130956857Y-124901000D01*
X130693143Y-124901000D01*
X130682811Y-124899982D01*
X130662251Y-124895893D01*
X130637747Y-124895893D01*
X130617188Y-124899982D01*
X130606857Y-124901000D01*
X130343143Y-124901000D01*
X130332811Y-124899982D01*
X130312251Y-124895893D01*
X130287747Y-124895893D01*
X130267188Y-124899982D01*
X130256857Y-124901000D01*
X129993143Y-124901000D01*
X129982811Y-124899982D01*
X129962251Y-124895893D01*
X129937747Y-124895893D01*
X129917188Y-124899982D01*
X129906857Y-124901000D01*
X129643143Y-124901000D01*
X129632811Y-124899982D01*
X129612251Y-124895893D01*
X129587747Y-124895893D01*
X129567188Y-124899982D01*
X129556857Y-124901000D01*
X129293143Y-124901000D01*
X129284584Y-124900157D01*
X129282255Y-124899450D01*
X129280113Y-124898305D01*
X129278235Y-124896765D01*
X129276695Y-124894887D01*
X129275550Y-124892745D01*
X129274843Y-124890416D01*
X129274000Y-124881857D01*
X129274000Y-124012000D01*
X129273879Y-124012000D01*
X129273880Y-123994877D01*
X129269101Y-123970843D01*
X129259726Y-123948204D01*
X129246113Y-123927829D01*
X129228788Y-123910500D01*
X129208414Y-123896885D01*
X129195982Y-123891736D01*
X129184922Y-123885824D01*
X129162283Y-123876447D01*
X129138250Y-123871667D01*
X129113746Y-123871667D01*
X129089713Y-123876448D01*
X129067074Y-123885825D01*
X129046700Y-123899439D01*
X129029373Y-123916766D01*
X129015759Y-123937141D01*
X129006382Y-123959780D01*
X129001000Y-123996064D01*
X129001000Y-124056857D01*
X128999982Y-124067189D01*
X128995893Y-124087749D01*
X128995893Y-124112253D01*
X128999982Y-124132812D01*
X129001000Y-124143143D01*
X129001000Y-124406857D01*
X129000157Y-124415416D01*
X128999450Y-124417745D01*
X128998305Y-124419887D01*
X128996765Y-124421765D01*
X128994887Y-124423305D01*
X128992745Y-124424450D01*
X128990416Y-124425157D01*
X128981857Y-124426000D01*
X128118143Y-124426000D01*
X128109584Y-124425157D01*
X128107255Y-124424450D01*
X128105113Y-124423305D01*
X128103235Y-124421765D01*
X128101695Y-124419887D01*
X128100550Y-124417745D01*
X128099843Y-124415416D01*
X128099000Y-124406857D01*
X128099000Y-124143143D01*
X128100018Y-124132811D01*
X128104107Y-124112251D01*
X128104107Y-124087747D01*
X128100018Y-124067188D01*
X128099000Y-124056857D01*
X128099000Y-123793143D01*
X128100018Y-123782811D01*
X128104107Y-123762251D01*
X128104107Y-123737747D01*
X128100018Y-123717188D01*
X128099000Y-123706857D01*
X128099000Y-123443143D01*
X128100018Y-123432811D01*
X128104107Y-123412251D01*
X128104107Y-123387747D01*
X128100018Y-123367188D01*
X128099000Y-123356857D01*
X128099000Y-123093143D01*
X128100018Y-123082811D01*
X128104107Y-123062251D01*
X128104107Y-123037747D01*
X128100018Y-123017188D01*
X128099000Y-123006857D01*
X128099000Y-122743143D01*
X128100018Y-122732811D01*
X128104107Y-122712251D01*
X128104107Y-122687747D01*
X128100018Y-122667188D01*
X128099000Y-122656857D01*
X128099000Y-122393143D01*
X128100018Y-122382811D01*
X128104107Y-122362251D01*
X128104107Y-122337747D01*
X128100018Y-122317188D01*
X128099000Y-122306857D01*
X128099000Y-122043143D01*
X128100018Y-122032811D01*
X128104107Y-122012251D01*
X128104107Y-121987747D01*
X128100018Y-121967188D01*
X128099000Y-121956857D01*
X128099000Y-121693143D01*
X128100018Y-121682811D01*
X128104107Y-121662251D01*
X128104107Y-121637747D01*
X128100018Y-121617188D01*
X128099000Y-121606857D01*
X128099000Y-121343143D01*
X128100018Y-121332811D01*
X128104107Y-121312251D01*
X128104107Y-121287747D01*
X128100018Y-121267188D01*
X128099000Y-121256857D01*
X128099000Y-120993143D01*
X128100018Y-120982811D01*
X128104107Y-120962251D01*
X128104107Y-120937747D01*
X128100018Y-120917188D01*
X128099000Y-120906857D01*
X128099000Y-120643143D01*
X128100018Y-120632811D01*
X128104107Y-120612251D01*
X128104107Y-120587747D01*
X128100018Y-120567188D01*
X128099000Y-120556857D01*
X128099000Y-120293143D01*
X128100018Y-120282811D01*
X128104107Y-120262251D01*
X128104107Y-120237747D01*
X128100018Y-120217188D01*
X128099000Y-120206857D01*
X128099000Y-119943143D01*
X128100018Y-119932811D01*
X128104107Y-119912251D01*
X128104107Y-119887747D01*
X128100018Y-119867188D01*
X128099000Y-119856857D01*
X128099000Y-119593143D01*
X128099843Y-119584584D01*
X128100550Y-119582255D01*
X128101695Y-119580113D01*
X128103235Y-119578235D01*
X128105113Y-119576695D01*
X128107255Y-119575550D01*
X128109584Y-119574843D01*
X128118143Y-119574000D01*
X128981857Y-119574000D01*
X128990416Y-119574843D01*
X128992745Y-119575550D01*
X128994887Y-119576695D01*
X128996765Y-119578235D01*
X128998305Y-119580113D01*
X128999450Y-119582255D01*
X129000157Y-119584584D01*
X129001000Y-119593143D01*
X129001000Y-119856857D01*
X128999982Y-119867189D01*
X128995893Y-119887749D01*
X128995893Y-119912253D01*
X128999982Y-119932812D01*
X129001000Y-119943143D01*
X129001000Y-120003936D01*
X129003402Y-120028322D01*
X129010515Y-120051771D01*
X129022066Y-120073382D01*
X129037611Y-120092324D01*
X129056553Y-120107869D01*
X129078164Y-120119420D01*
X129101613Y-120126533D01*
X129125999Y-120128935D01*
X129150385Y-120126533D01*
X129184922Y-120114176D01*
X129195976Y-120108268D01*
X129208401Y-120103122D01*
X129228776Y-120089509D01*
X129246104Y-120072183D01*
X129259718Y-120051810D01*
X129269097Y-120029171D01*
X129273878Y-120005138D01*
X129273878Y-119988000D01*
X129274000Y-119988000D01*
X129274000Y-119118143D01*
X129274843Y-119109584D01*
X129275550Y-119107255D01*
X129276695Y-119105113D01*
X129278235Y-119103235D01*
X129280113Y-119101695D01*
X129282255Y-119100550D01*
X129284584Y-119099843D01*
X129293143Y-119099000D01*
X129556857Y-119099000D01*
X129567189Y-119100018D01*
G37*
G36*
X91461766Y-122661899D02*
G01*
X91593888Y-122716626D01*
X91593890Y-122716627D01*
X91712798Y-122796079D01*
X91813921Y-122897202D01*
X91887190Y-123006857D01*
X91893374Y-123016112D01*
X91948101Y-123148234D01*
X91976000Y-123288494D01*
X91976000Y-123431506D01*
X91948101Y-123571766D01*
X91918136Y-123644107D01*
X91893373Y-123703890D01*
X91813921Y-123822798D01*
X91712798Y-123923921D01*
X91593890Y-124003373D01*
X91593889Y-124003374D01*
X91593888Y-124003374D01*
X91461766Y-124058101D01*
X91321506Y-124086000D01*
X91178494Y-124086000D01*
X91038234Y-124058101D01*
X90906112Y-124003374D01*
X90906111Y-124003374D01*
X90906110Y-124003373D01*
X90787202Y-123923921D01*
X90686079Y-123822798D01*
X90606627Y-123703890D01*
X90581864Y-123644107D01*
X90551899Y-123571766D01*
X90524000Y-123431506D01*
X90524000Y-123288494D01*
X90551899Y-123148234D01*
X90606626Y-123016112D01*
X90612810Y-123006857D01*
X90686079Y-122897202D01*
X90787202Y-122796079D01*
X90906110Y-122716627D01*
X90906112Y-122716626D01*
X91038234Y-122661899D01*
X91178494Y-122634000D01*
X91321506Y-122634000D01*
X91461766Y-122661899D01*
G37*
G36*
X91461766Y-120661899D02*
G01*
X91593888Y-120716626D01*
X91593890Y-120716627D01*
X91712798Y-120796079D01*
X91813921Y-120897202D01*
X91865236Y-120974000D01*
X91893374Y-121016112D01*
X91948101Y-121148234D01*
X91976000Y-121288494D01*
X91976000Y-121431506D01*
X91948101Y-121571766D01*
X91893374Y-121703888D01*
X91893373Y-121703890D01*
X91813921Y-121822798D01*
X91712798Y-121923921D01*
X91593890Y-122003373D01*
X91593889Y-122003374D01*
X91593888Y-122003374D01*
X91461766Y-122058101D01*
X91321506Y-122086000D01*
X91178494Y-122086000D01*
X91038234Y-122058101D01*
X90906112Y-122003374D01*
X90906111Y-122003374D01*
X90906110Y-122003373D01*
X90787202Y-121923921D01*
X90686079Y-121822798D01*
X90606627Y-121703890D01*
X90606626Y-121703888D01*
X90551899Y-121571766D01*
X90524000Y-121431506D01*
X90524000Y-121288494D01*
X90551899Y-121148234D01*
X90606626Y-121016112D01*
X90634764Y-120974000D01*
X90686079Y-120897202D01*
X90787202Y-120796079D01*
X90906110Y-120716627D01*
X90906112Y-120716626D01*
X91038234Y-120661899D01*
X91178494Y-120634000D01*
X91321506Y-120634000D01*
X91461766Y-120661899D01*
G37*
G36*
X91461766Y-118661899D02*
G01*
X91593888Y-118716626D01*
X91593890Y-118716627D01*
X91712798Y-118796079D01*
X91813921Y-118897202D01*
X91813922Y-118897204D01*
X91893374Y-119016112D01*
X91948101Y-119148234D01*
X91976000Y-119288494D01*
X91976000Y-119431506D01*
X91948101Y-119571766D01*
X91927870Y-119620607D01*
X91893373Y-119703890D01*
X91813921Y-119822798D01*
X91712798Y-119923921D01*
X91593890Y-120003373D01*
X91593889Y-120003374D01*
X91593888Y-120003374D01*
X91461766Y-120058101D01*
X91321506Y-120086000D01*
X91178494Y-120086000D01*
X91038234Y-120058101D01*
X90906112Y-120003374D01*
X90906111Y-120003374D01*
X90906110Y-120003373D01*
X90787202Y-119923921D01*
X90686079Y-119822798D01*
X90606627Y-119703890D01*
X90572130Y-119620607D01*
X90551899Y-119571766D01*
X90524000Y-119431506D01*
X90524000Y-119288494D01*
X90551899Y-119148234D01*
X90606626Y-119016112D01*
X90686078Y-118897204D01*
X90686079Y-118897202D01*
X90787202Y-118796079D01*
X90906110Y-118716627D01*
X90906112Y-118716626D01*
X91038234Y-118661899D01*
X91178494Y-118634000D01*
X91321506Y-118634000D01*
X91461766Y-118661899D01*
G37*
G36*
X91461766Y-116661899D02*
G01*
X91593888Y-116716626D01*
X91593890Y-116716627D01*
X91712798Y-116796079D01*
X91813921Y-116897202D01*
X91813922Y-116897204D01*
X91893374Y-117016112D01*
X91948101Y-117148234D01*
X91976000Y-117288494D01*
X91976000Y-117431506D01*
X91948101Y-117571766D01*
X91893374Y-117703888D01*
X91893373Y-117703890D01*
X91813921Y-117822798D01*
X91712798Y-117923921D01*
X91593890Y-118003373D01*
X91593889Y-118003374D01*
X91593888Y-118003374D01*
X91461766Y-118058101D01*
X91321506Y-118086000D01*
X91178494Y-118086000D01*
X91038234Y-118058101D01*
X90906112Y-118003374D01*
X90906111Y-118003374D01*
X90906110Y-118003373D01*
X90787202Y-117923921D01*
X90686079Y-117822798D01*
X90606627Y-117703890D01*
X90606626Y-117703888D01*
X90551899Y-117571766D01*
X90524000Y-117431506D01*
X90524000Y-117288494D01*
X90551899Y-117148234D01*
X90606626Y-117016112D01*
X90686078Y-116897204D01*
X90686079Y-116897202D01*
X90787202Y-116796079D01*
X90906110Y-116716627D01*
X90906112Y-116716626D01*
X91038234Y-116661899D01*
X91178494Y-116634000D01*
X91321506Y-116634000D01*
X91461766Y-116661899D01*
G37*
G36*
X133070170Y-116730803D02*
G01*
X133081877Y-116734355D01*
X133101077Y-116744617D01*
X133123716Y-116753994D01*
X133147749Y-116758774D01*
X133172253Y-116758774D01*
X133196286Y-116753993D01*
X133218923Y-116744617D01*
X133238123Y-116734355D01*
X133249830Y-116730803D01*
X133268138Y-116729000D01*
X133691862Y-116729000D01*
X133710170Y-116730803D01*
X133721875Y-116734354D01*
X133732665Y-116740121D01*
X133742119Y-116747881D01*
X133749879Y-116757335D01*
X133755646Y-116768125D01*
X133759197Y-116779830D01*
X133761000Y-116798138D01*
X133761000Y-117161862D01*
X133759197Y-117180170D01*
X133755646Y-117191875D01*
X133749879Y-117202665D01*
X133742119Y-117212119D01*
X133732665Y-117219879D01*
X133721875Y-117225646D01*
X133710170Y-117229197D01*
X133691862Y-117231000D01*
X133268138Y-117231000D01*
X133249830Y-117229197D01*
X133238123Y-117225645D01*
X133218923Y-117215383D01*
X133196284Y-117206006D01*
X133172251Y-117201226D01*
X133147747Y-117201226D01*
X133123714Y-117206007D01*
X133101077Y-117215383D01*
X133081877Y-117225645D01*
X133070170Y-117229197D01*
X133051862Y-117231000D01*
X132628138Y-117231000D01*
X132609830Y-117229197D01*
X132598125Y-117225646D01*
X132587335Y-117219879D01*
X132577881Y-117212119D01*
X132570121Y-117202665D01*
X132564354Y-117191875D01*
X132560803Y-117180170D01*
X132559000Y-117161862D01*
X132559000Y-116798138D01*
X132560803Y-116779830D01*
X132564354Y-116768125D01*
X132570121Y-116757335D01*
X132577881Y-116747881D01*
X132587335Y-116740121D01*
X132598125Y-116734354D01*
X132609830Y-116730803D01*
X132628138Y-116729000D01*
X133051862Y-116729000D01*
X133070170Y-116730803D01*
G37*
G36*
X129580170Y-116730803D02*
G01*
X129591877Y-116734355D01*
X129611077Y-116744617D01*
X129633716Y-116753994D01*
X129657749Y-116758774D01*
X129682253Y-116758774D01*
X129706286Y-116753993D01*
X129728923Y-116744617D01*
X129748123Y-116734355D01*
X129759830Y-116730803D01*
X129778138Y-116729000D01*
X130201862Y-116729000D01*
X130220170Y-116730803D01*
X130231875Y-116734354D01*
X130242665Y-116740121D01*
X130252119Y-116747881D01*
X130259879Y-116757335D01*
X130265646Y-116768125D01*
X130269197Y-116779830D01*
X130271000Y-116798138D01*
X130271000Y-117161862D01*
X130269197Y-117180170D01*
X130265646Y-117191875D01*
X130259879Y-117202665D01*
X130252119Y-117212119D01*
X130242665Y-117219879D01*
X130231875Y-117225646D01*
X130220170Y-117229197D01*
X130201862Y-117231000D01*
X129778138Y-117231000D01*
X129759830Y-117229197D01*
X129748123Y-117225645D01*
X129728923Y-117215383D01*
X129706284Y-117206006D01*
X129682251Y-117201226D01*
X129657747Y-117201226D01*
X129633714Y-117206007D01*
X129611077Y-117215383D01*
X129591877Y-117225645D01*
X129580170Y-117229197D01*
X129561862Y-117231000D01*
X129138138Y-117231000D01*
X129119830Y-117229197D01*
X129108125Y-117225646D01*
X129097335Y-117219879D01*
X129087881Y-117212119D01*
X129080121Y-117202665D01*
X129074354Y-117191875D01*
X129070803Y-117180170D01*
X129069000Y-117161862D01*
X129069000Y-116798138D01*
X129070803Y-116779830D01*
X129074354Y-116768125D01*
X129080121Y-116757335D01*
X129087881Y-116747881D01*
X129097335Y-116740121D01*
X129108125Y-116734354D01*
X129119830Y-116730803D01*
X129138138Y-116729000D01*
X129561862Y-116729000D01*
X129580170Y-116730803D01*
G37*
G36*
X125450170Y-116730803D02*
G01*
X125461877Y-116734355D01*
X125481077Y-116744617D01*
X125503716Y-116753994D01*
X125527749Y-116758774D01*
X125552253Y-116758774D01*
X125576286Y-116753993D01*
X125598923Y-116744617D01*
X125618123Y-116734355D01*
X125629830Y-116730803D01*
X125648138Y-116729000D01*
X126071862Y-116729000D01*
X126090170Y-116730803D01*
X126101875Y-116734354D01*
X126112665Y-116740121D01*
X126122119Y-116747881D01*
X126129879Y-116757335D01*
X126135646Y-116768125D01*
X126139197Y-116779830D01*
X126141000Y-116798138D01*
X126141000Y-117161862D01*
X126139197Y-117180170D01*
X126135646Y-117191875D01*
X126129879Y-117202665D01*
X126122119Y-117212119D01*
X126112665Y-117219879D01*
X126101875Y-117225646D01*
X126090170Y-117229197D01*
X126071862Y-117231000D01*
X125648138Y-117231000D01*
X125629830Y-117229197D01*
X125618123Y-117225645D01*
X125598923Y-117215383D01*
X125576284Y-117206006D01*
X125552251Y-117201226D01*
X125527747Y-117201226D01*
X125503714Y-117206007D01*
X125481077Y-117215383D01*
X125461877Y-117225645D01*
X125450170Y-117229197D01*
X125431862Y-117231000D01*
X125008138Y-117231000D01*
X124989830Y-117229197D01*
X124978125Y-117225646D01*
X124967335Y-117219879D01*
X124957881Y-117212119D01*
X124950121Y-117202665D01*
X124944354Y-117191875D01*
X124940803Y-117180170D01*
X124939000Y-117161862D01*
X124939000Y-116798138D01*
X124940803Y-116779830D01*
X124944354Y-116768125D01*
X124950121Y-116757335D01*
X124957881Y-116747881D01*
X124967335Y-116740121D01*
X124978125Y-116734354D01*
X124989830Y-116730803D01*
X125008138Y-116729000D01*
X125431862Y-116729000D01*
X125450170Y-116730803D01*
G37*
G36*
X139651000Y-116851000D02*
G01*
X137349000Y-116851000D01*
X137349000Y-115149000D01*
X139651000Y-115149000D01*
X139651000Y-116851000D01*
G37*
G36*
X142651000Y-116851000D02*
G01*
X140349000Y-116851000D01*
X140349000Y-115149000D01*
X142651000Y-115149000D01*
X142651000Y-116851000D01*
G37*
G36*
X110405355Y-107600083D02*
G01*
X110410029Y-107601501D01*
X110414330Y-107603800D01*
X110420702Y-107609029D01*
X110441076Y-107622643D01*
X110463715Y-107632020D01*
X110487749Y-107636800D01*
X110512253Y-107636800D01*
X110536286Y-107632019D01*
X110558925Y-107622642D01*
X110579298Y-107609029D01*
X110585670Y-107603800D01*
X110589971Y-107601501D01*
X110594645Y-107600083D01*
X110605641Y-107599000D01*
X110894359Y-107599000D01*
X110905355Y-107600083D01*
X110910029Y-107601501D01*
X110914330Y-107603800D01*
X110920702Y-107609029D01*
X110941076Y-107622643D01*
X110963715Y-107632020D01*
X110987749Y-107636800D01*
X111012253Y-107636800D01*
X111036286Y-107632019D01*
X111058925Y-107622642D01*
X111079298Y-107609029D01*
X111085670Y-107603800D01*
X111089971Y-107601501D01*
X111094645Y-107600083D01*
X111105641Y-107599000D01*
X111394359Y-107599000D01*
X111405355Y-107600083D01*
X111410029Y-107601501D01*
X111414330Y-107603800D01*
X111420702Y-107609029D01*
X111441076Y-107622643D01*
X111463715Y-107632020D01*
X111487749Y-107636800D01*
X111512253Y-107636800D01*
X111536286Y-107632019D01*
X111558925Y-107622642D01*
X111579298Y-107609029D01*
X111585670Y-107603800D01*
X111589971Y-107601501D01*
X111594645Y-107600083D01*
X111605641Y-107599000D01*
X111894359Y-107599000D01*
X111905355Y-107600083D01*
X111910029Y-107601501D01*
X111914330Y-107603800D01*
X111920702Y-107609029D01*
X111941076Y-107622643D01*
X111963715Y-107632020D01*
X111987749Y-107636800D01*
X112012253Y-107636800D01*
X112036286Y-107632019D01*
X112058925Y-107622642D01*
X112079298Y-107609029D01*
X112085670Y-107603800D01*
X112089971Y-107601501D01*
X112094645Y-107600083D01*
X112105641Y-107599000D01*
X112394359Y-107599000D01*
X112405355Y-107600083D01*
X112410029Y-107601501D01*
X112414330Y-107603800D01*
X112420702Y-107609029D01*
X112441076Y-107622643D01*
X112463715Y-107632020D01*
X112487749Y-107636800D01*
X112512253Y-107636800D01*
X112536286Y-107632019D01*
X112558925Y-107622642D01*
X112579298Y-107609029D01*
X112585670Y-107603800D01*
X112589971Y-107601501D01*
X112594645Y-107600083D01*
X112605641Y-107599000D01*
X112894359Y-107599000D01*
X112905355Y-107600083D01*
X112910029Y-107601501D01*
X112914330Y-107603800D01*
X112920702Y-107609029D01*
X112941076Y-107622643D01*
X112963715Y-107632020D01*
X112987749Y-107636800D01*
X113012253Y-107636800D01*
X113036286Y-107632019D01*
X113058925Y-107622642D01*
X113079298Y-107609029D01*
X113085670Y-107603800D01*
X113089971Y-107601501D01*
X113094645Y-107600083D01*
X113105641Y-107599000D01*
X113394359Y-107599000D01*
X113405355Y-107600083D01*
X113410029Y-107601501D01*
X113414330Y-107603800D01*
X113420702Y-107609029D01*
X113441076Y-107622643D01*
X113463715Y-107632020D01*
X113487749Y-107636800D01*
X113512253Y-107636800D01*
X113536286Y-107632019D01*
X113558925Y-107622642D01*
X113579298Y-107609029D01*
X113585670Y-107603800D01*
X113589971Y-107601501D01*
X113594645Y-107600083D01*
X113605641Y-107599000D01*
X113894359Y-107599000D01*
X113905355Y-107600083D01*
X113910029Y-107601501D01*
X113914330Y-107603800D01*
X113920702Y-107609029D01*
X113941076Y-107622643D01*
X113963715Y-107632020D01*
X113987749Y-107636800D01*
X114012253Y-107636800D01*
X114036286Y-107632019D01*
X114058925Y-107622642D01*
X114079298Y-107609029D01*
X114085670Y-107603800D01*
X114089971Y-107601501D01*
X114094645Y-107600083D01*
X114105641Y-107599000D01*
X114394359Y-107599000D01*
X114405355Y-107600083D01*
X114410029Y-107601501D01*
X114414330Y-107603800D01*
X114420702Y-107609029D01*
X114441076Y-107622643D01*
X114463715Y-107632020D01*
X114487749Y-107636800D01*
X114512253Y-107636800D01*
X114536286Y-107632019D01*
X114558925Y-107622642D01*
X114579298Y-107609029D01*
X114585670Y-107603800D01*
X114589971Y-107601501D01*
X114594645Y-107600083D01*
X114605641Y-107599000D01*
X114894359Y-107599000D01*
X114905355Y-107600083D01*
X114910029Y-107601501D01*
X114914330Y-107603800D01*
X114920702Y-107609029D01*
X114941076Y-107622643D01*
X114963715Y-107632020D01*
X114987749Y-107636800D01*
X115012253Y-107636800D01*
X115036286Y-107632019D01*
X115058925Y-107622642D01*
X115079298Y-107609029D01*
X115085670Y-107603800D01*
X115089971Y-107601501D01*
X115094645Y-107600083D01*
X115105641Y-107599000D01*
X115394359Y-107599000D01*
X115405355Y-107600083D01*
X115410029Y-107601501D01*
X115414330Y-107603800D01*
X115420702Y-107609029D01*
X115441076Y-107622643D01*
X115463715Y-107632020D01*
X115487749Y-107636800D01*
X115512253Y-107636800D01*
X115536286Y-107632019D01*
X115558925Y-107622642D01*
X115579298Y-107609029D01*
X115585670Y-107603800D01*
X115589971Y-107601501D01*
X115594645Y-107600083D01*
X115605641Y-107599000D01*
X115894359Y-107599000D01*
X115905355Y-107600083D01*
X115910029Y-107601501D01*
X115914331Y-107603800D01*
X115918104Y-107606896D01*
X115921200Y-107610669D01*
X115923499Y-107614971D01*
X115924917Y-107619645D01*
X115926000Y-107630641D01*
X115926000Y-108619359D01*
X115924917Y-108630355D01*
X115923499Y-108635029D01*
X115921200Y-108639330D01*
X115916671Y-108644849D01*
X115903057Y-108665223D01*
X115893680Y-108687862D01*
X115888899Y-108711895D01*
X115888899Y-108736400D01*
X115893679Y-108760433D01*
X115903057Y-108783072D01*
X115916670Y-108803446D01*
X115933997Y-108820773D01*
X115954371Y-108834387D01*
X115977010Y-108843764D01*
X116001045Y-108848545D01*
X116038840Y-108852267D01*
X116064836Y-108860153D01*
X116088803Y-108872964D01*
X116109803Y-108890197D01*
X116127036Y-108911197D01*
X116139847Y-108935164D01*
X116147733Y-108961160D01*
X116151455Y-108998955D01*
X116156235Y-109022988D01*
X116165612Y-109045627D01*
X116179226Y-109066002D01*
X116196553Y-109083329D01*
X116216927Y-109096943D01*
X116239566Y-109106320D01*
X116263599Y-109111101D01*
X116288103Y-109111101D01*
X116312136Y-109106321D01*
X116334775Y-109096944D01*
X116355151Y-109083329D01*
X116360670Y-109078800D01*
X116364971Y-109076501D01*
X116369645Y-109075083D01*
X116380641Y-109074000D01*
X117369359Y-109074000D01*
X117380355Y-109075083D01*
X117385029Y-109076501D01*
X117389331Y-109078800D01*
X117393104Y-109081896D01*
X117396200Y-109085669D01*
X117398499Y-109089971D01*
X117399917Y-109094645D01*
X117401000Y-109105641D01*
X117401000Y-109394359D01*
X117399917Y-109405355D01*
X117398499Y-109410029D01*
X117396200Y-109414330D01*
X117390971Y-109420702D01*
X117377357Y-109441076D01*
X117367980Y-109463715D01*
X117363200Y-109487749D01*
X117363200Y-109512253D01*
X117367981Y-109536286D01*
X117377358Y-109558925D01*
X117390971Y-109579298D01*
X117396200Y-109585670D01*
X117398499Y-109589971D01*
X117399917Y-109594645D01*
X117401000Y-109605641D01*
X117401000Y-109894359D01*
X117399917Y-109905355D01*
X117398499Y-109910029D01*
X117396200Y-109914330D01*
X117390971Y-109920702D01*
X117377357Y-109941076D01*
X117367980Y-109963715D01*
X117363200Y-109987749D01*
X117363200Y-110012253D01*
X117367981Y-110036286D01*
X117377358Y-110058925D01*
X117390971Y-110079298D01*
X117396200Y-110085670D01*
X117398499Y-110089971D01*
X117399917Y-110094645D01*
X117401000Y-110105641D01*
X117401000Y-110394359D01*
X117399917Y-110405355D01*
X117398499Y-110410029D01*
X117396200Y-110414330D01*
X117390971Y-110420702D01*
X117377357Y-110441076D01*
X117367980Y-110463715D01*
X117363200Y-110487749D01*
X117363200Y-110512253D01*
X117367981Y-110536286D01*
X117377358Y-110558925D01*
X117390971Y-110579298D01*
X117396200Y-110585670D01*
X117398499Y-110589971D01*
X117399917Y-110594645D01*
X117401000Y-110605641D01*
X117401000Y-110894359D01*
X117399917Y-110905355D01*
X117398499Y-110910029D01*
X117396200Y-110914330D01*
X117390971Y-110920702D01*
X117377357Y-110941076D01*
X117367980Y-110963715D01*
X117363200Y-110987749D01*
X117363200Y-111012253D01*
X117367981Y-111036286D01*
X117377358Y-111058925D01*
X117390971Y-111079298D01*
X117396200Y-111085670D01*
X117398499Y-111089971D01*
X117399917Y-111094645D01*
X117401000Y-111105641D01*
X117401000Y-111394359D01*
X117399917Y-111405355D01*
X117398499Y-111410029D01*
X117396200Y-111414330D01*
X117390971Y-111420702D01*
X117377357Y-111441076D01*
X117367980Y-111463715D01*
X117363200Y-111487749D01*
X117363200Y-111512253D01*
X117367981Y-111536286D01*
X117377358Y-111558925D01*
X117390971Y-111579298D01*
X117396200Y-111585670D01*
X117398499Y-111589971D01*
X117399917Y-111594645D01*
X117401000Y-111605641D01*
X117401000Y-111894359D01*
X117399917Y-111905355D01*
X117398499Y-111910029D01*
X117396200Y-111914330D01*
X117390971Y-111920702D01*
X117377357Y-111941076D01*
X117367980Y-111963715D01*
X117363200Y-111987749D01*
X117363200Y-112012253D01*
X117367981Y-112036286D01*
X117377358Y-112058925D01*
X117390971Y-112079298D01*
X117396200Y-112085670D01*
X117398499Y-112089971D01*
X117399917Y-112094645D01*
X117401000Y-112105641D01*
X117401000Y-112394359D01*
X117399917Y-112405355D01*
X117398499Y-112410029D01*
X117396200Y-112414330D01*
X117390971Y-112420702D01*
X117377357Y-112441076D01*
X117367980Y-112463715D01*
X117363200Y-112487749D01*
X117363200Y-112512253D01*
X117367981Y-112536286D01*
X117377358Y-112558925D01*
X117390971Y-112579298D01*
X117396200Y-112585670D01*
X117398499Y-112589971D01*
X117399917Y-112594645D01*
X117401000Y-112605641D01*
X117401000Y-112894359D01*
X117399917Y-112905355D01*
X117398499Y-112910029D01*
X117396200Y-112914330D01*
X117390971Y-112920702D01*
X117377357Y-112941076D01*
X117367980Y-112963715D01*
X117363200Y-112987749D01*
X117363200Y-113012253D01*
X117367981Y-113036286D01*
X117377358Y-113058925D01*
X117390971Y-113079298D01*
X117396200Y-113085670D01*
X117398499Y-113089971D01*
X117399917Y-113094645D01*
X117401000Y-113105641D01*
X117401000Y-113394359D01*
X117399917Y-113405355D01*
X117398499Y-113410029D01*
X117396200Y-113414330D01*
X117390971Y-113420702D01*
X117377357Y-113441076D01*
X117367980Y-113463715D01*
X117363200Y-113487749D01*
X117363200Y-113512253D01*
X117367981Y-113536286D01*
X117377358Y-113558925D01*
X117390971Y-113579298D01*
X117396200Y-113585670D01*
X117398499Y-113589971D01*
X117399917Y-113594645D01*
X117401000Y-113605641D01*
X117401000Y-113894359D01*
X117399917Y-113905355D01*
X117398499Y-113910029D01*
X117396200Y-113914330D01*
X117390971Y-113920702D01*
X117377357Y-113941076D01*
X117367980Y-113963715D01*
X117363200Y-113987749D01*
X117363200Y-114012253D01*
X117367981Y-114036286D01*
X117377358Y-114058925D01*
X117390971Y-114079298D01*
X117396200Y-114085670D01*
X117398499Y-114089971D01*
X117399917Y-114094645D01*
X117401000Y-114105641D01*
X117401000Y-114394359D01*
X117399917Y-114405355D01*
X117398499Y-114410029D01*
X117396200Y-114414330D01*
X117390971Y-114420702D01*
X117377357Y-114441076D01*
X117367980Y-114463715D01*
X117363200Y-114487749D01*
X117363200Y-114512253D01*
X117367981Y-114536286D01*
X117377358Y-114558925D01*
X117390971Y-114579298D01*
X117396200Y-114585670D01*
X117398499Y-114589971D01*
X117399917Y-114594645D01*
X117401000Y-114605641D01*
X117401000Y-114894359D01*
X117399917Y-114905355D01*
X117398499Y-114910029D01*
X117396200Y-114914331D01*
X117393104Y-114918104D01*
X117389331Y-114921200D01*
X117385029Y-114923499D01*
X117380355Y-114924917D01*
X117369359Y-114926000D01*
X116380641Y-114926000D01*
X116369645Y-114924917D01*
X116364971Y-114923499D01*
X116360670Y-114921200D01*
X116355151Y-114916671D01*
X116334777Y-114903057D01*
X116312138Y-114893680D01*
X116288105Y-114888899D01*
X116263600Y-114888899D01*
X116239567Y-114893679D01*
X116216928Y-114903057D01*
X116196554Y-114916670D01*
X116179227Y-114933997D01*
X116165613Y-114954371D01*
X116156236Y-114977010D01*
X116151455Y-115001045D01*
X116147733Y-115038840D01*
X116139847Y-115064836D01*
X116127036Y-115088803D01*
X116109803Y-115109803D01*
X116088803Y-115127036D01*
X116064836Y-115139847D01*
X116038840Y-115147733D01*
X116001045Y-115151455D01*
X115977012Y-115156235D01*
X115954373Y-115165612D01*
X115933998Y-115179226D01*
X115916671Y-115196553D01*
X115903057Y-115216927D01*
X115893680Y-115239566D01*
X115888899Y-115263599D01*
X115888899Y-115288103D01*
X115893679Y-115312136D01*
X115903056Y-115334775D01*
X115916671Y-115355151D01*
X115921200Y-115360670D01*
X115923499Y-115364971D01*
X115924917Y-115369645D01*
X115926000Y-115380641D01*
X115926000Y-116369359D01*
X115924917Y-116380355D01*
X115923499Y-116385029D01*
X115921200Y-116389331D01*
X115918104Y-116393104D01*
X115914331Y-116396200D01*
X115910029Y-116398499D01*
X115905355Y-116399917D01*
X115894359Y-116401000D01*
X115605641Y-116401000D01*
X115594645Y-116399917D01*
X115589971Y-116398499D01*
X115585670Y-116396200D01*
X115579298Y-116390971D01*
X115558924Y-116377357D01*
X115536285Y-116367980D01*
X115512251Y-116363200D01*
X115487747Y-116363200D01*
X115463714Y-116367981D01*
X115441075Y-116377358D01*
X115420702Y-116390971D01*
X115414330Y-116396200D01*
X115410029Y-116398499D01*
X115405355Y-116399917D01*
X115394359Y-116401000D01*
X115105641Y-116401000D01*
X115094645Y-116399917D01*
X115089971Y-116398499D01*
X115085670Y-116396200D01*
X115079298Y-116390971D01*
X115058924Y-116377357D01*
X115036285Y-116367980D01*
X115012251Y-116363200D01*
X114987747Y-116363200D01*
X114963714Y-116367981D01*
X114941075Y-116377358D01*
X114920702Y-116390971D01*
X114914330Y-116396200D01*
X114910029Y-116398499D01*
X114905355Y-116399917D01*
X114894359Y-116401000D01*
X114605641Y-116401000D01*
X114594645Y-116399917D01*
X114589971Y-116398499D01*
X114585670Y-116396200D01*
X114579298Y-116390971D01*
X114558924Y-116377357D01*
X114536285Y-116367980D01*
X114512251Y-116363200D01*
X114487747Y-116363200D01*
X114463714Y-116367981D01*
X114441075Y-116377358D01*
X114420702Y-116390971D01*
X114414330Y-116396200D01*
X114410029Y-116398499D01*
X114405355Y-116399917D01*
X114394359Y-116401000D01*
X114105641Y-116401000D01*
X114094645Y-116399917D01*
X114089971Y-116398499D01*
X114085670Y-116396200D01*
X114079298Y-116390971D01*
X114058924Y-116377357D01*
X114036285Y-116367980D01*
X114012251Y-116363200D01*
X113987747Y-116363200D01*
X113963714Y-116367981D01*
X113941075Y-116377358D01*
X113920702Y-116390971D01*
X113914330Y-116396200D01*
X113910029Y-116398499D01*
X113905355Y-116399917D01*
X113894359Y-116401000D01*
X113605641Y-116401000D01*
X113594645Y-116399917D01*
X113589971Y-116398499D01*
X113585670Y-116396200D01*
X113579298Y-116390971D01*
X113558924Y-116377357D01*
X113536285Y-116367980D01*
X113512251Y-116363200D01*
X113487747Y-116363200D01*
X113463714Y-116367981D01*
X113441075Y-116377358D01*
X113420702Y-116390971D01*
X113414330Y-116396200D01*
X113410029Y-116398499D01*
X113405355Y-116399917D01*
X113394359Y-116401000D01*
X113105641Y-116401000D01*
X113094645Y-116399917D01*
X113089971Y-116398499D01*
X113085670Y-116396200D01*
X113079298Y-116390971D01*
X113058924Y-116377357D01*
X113036285Y-116367980D01*
X113012251Y-116363200D01*
X112987747Y-116363200D01*
X112963714Y-116367981D01*
X112941075Y-116377358D01*
X112920702Y-116390971D01*
X112914330Y-116396200D01*
X112910029Y-116398499D01*
X112905355Y-116399917D01*
X112894359Y-116401000D01*
X112605641Y-116401000D01*
X112594645Y-116399917D01*
X112589971Y-116398499D01*
X112585670Y-116396200D01*
X112579298Y-116390971D01*
X112558924Y-116377357D01*
X112536285Y-116367980D01*
X112512251Y-116363200D01*
X112487747Y-116363200D01*
X112463714Y-116367981D01*
X112441075Y-116377358D01*
X112420702Y-116390971D01*
X112414330Y-116396200D01*
X112410029Y-116398499D01*
X112405355Y-116399917D01*
X112394359Y-116401000D01*
X112105641Y-116401000D01*
X112094645Y-116399917D01*
X112089971Y-116398499D01*
X112085670Y-116396200D01*
X112079298Y-116390971D01*
X112058924Y-116377357D01*
X112036285Y-116367980D01*
X112012251Y-116363200D01*
X111987747Y-116363200D01*
X111963714Y-116367981D01*
X111941075Y-116377358D01*
X111920702Y-116390971D01*
X111914330Y-116396200D01*
X111910029Y-116398499D01*
X111905355Y-116399917D01*
X111894359Y-116401000D01*
X111605641Y-116401000D01*
X111594645Y-116399917D01*
X111589971Y-116398499D01*
X111585670Y-116396200D01*
X111579298Y-116390971D01*
X111558924Y-116377357D01*
X111536285Y-116367980D01*
X111512251Y-116363200D01*
X111487747Y-116363200D01*
X111463714Y-116367981D01*
X111441075Y-116377358D01*
X111420702Y-116390971D01*
X111414330Y-116396200D01*
X111410029Y-116398499D01*
X111405355Y-116399917D01*
X111394359Y-116401000D01*
X111105641Y-116401000D01*
X111094645Y-116399917D01*
X111089971Y-116398499D01*
X111085670Y-116396200D01*
X111079298Y-116390971D01*
X111058924Y-116377357D01*
X111036285Y-116367980D01*
X111012251Y-116363200D01*
X110987747Y-116363200D01*
X110963714Y-116367981D01*
X110941075Y-116377358D01*
X110920702Y-116390971D01*
X110914330Y-116396200D01*
X110910029Y-116398499D01*
X110905355Y-116399917D01*
X110894359Y-116401000D01*
X110605641Y-116401000D01*
X110594645Y-116399917D01*
X110589971Y-116398499D01*
X110585670Y-116396200D01*
X110579298Y-116390971D01*
X110558924Y-116377357D01*
X110536285Y-116367980D01*
X110512251Y-116363200D01*
X110487747Y-116363200D01*
X110463714Y-116367981D01*
X110441075Y-116377358D01*
X110420702Y-116390971D01*
X110414330Y-116396200D01*
X110410029Y-116398499D01*
X110405355Y-116399917D01*
X110394359Y-116401000D01*
X110105641Y-116401000D01*
X110094645Y-116399917D01*
X110089971Y-116398499D01*
X110085669Y-116396200D01*
X110081896Y-116393104D01*
X110078800Y-116389331D01*
X110076501Y-116385029D01*
X110075083Y-116380355D01*
X110074000Y-116369359D01*
X110074000Y-115380641D01*
X110075083Y-115369645D01*
X110076501Y-115364971D01*
X110078800Y-115360670D01*
X110083329Y-115355151D01*
X110096943Y-115334777D01*
X110106320Y-115312138D01*
X110111101Y-115288105D01*
X110111101Y-115263600D01*
X110106321Y-115239567D01*
X110096943Y-115216928D01*
X110083330Y-115196554D01*
X110066003Y-115179227D01*
X110045629Y-115165613D01*
X110022990Y-115156236D01*
X109998955Y-115151455D01*
X109961160Y-115147733D01*
X109935164Y-115139847D01*
X109911197Y-115127036D01*
X109890197Y-115109803D01*
X109872964Y-115088803D01*
X109860153Y-115064836D01*
X109852267Y-115038840D01*
X109848545Y-115001045D01*
X109843765Y-114977012D01*
X109834388Y-114954373D01*
X109820774Y-114933998D01*
X109803447Y-114916671D01*
X109783073Y-114903057D01*
X109760434Y-114893680D01*
X109736401Y-114888899D01*
X109711897Y-114888899D01*
X109687864Y-114893679D01*
X109665225Y-114903056D01*
X109644849Y-114916671D01*
X109639330Y-114921200D01*
X109635029Y-114923499D01*
X109630355Y-114924917D01*
X109619359Y-114926000D01*
X108630641Y-114926000D01*
X108619645Y-114924917D01*
X108614971Y-114923499D01*
X108610669Y-114921200D01*
X108606896Y-114918104D01*
X108603800Y-114914331D01*
X108601501Y-114910029D01*
X108600083Y-114905355D01*
X108599000Y-114894359D01*
X108599000Y-114605641D01*
X108600083Y-114594645D01*
X108601501Y-114589971D01*
X108603800Y-114585670D01*
X108609029Y-114579298D01*
X108622643Y-114558924D01*
X108632020Y-114536285D01*
X108636800Y-114512251D01*
X108636800Y-114487747D01*
X108632019Y-114463714D01*
X108622642Y-114441075D01*
X108609029Y-114420702D01*
X108603800Y-114414330D01*
X108601501Y-114410029D01*
X108600083Y-114405355D01*
X108599000Y-114394359D01*
X108599000Y-114105641D01*
X108600083Y-114094645D01*
X108601501Y-114089971D01*
X108603800Y-114085670D01*
X108609029Y-114079298D01*
X108622643Y-114058924D01*
X108632020Y-114036285D01*
X108636800Y-114012251D01*
X108636800Y-113987747D01*
X108632019Y-113963714D01*
X108622642Y-113941075D01*
X108609029Y-113920702D01*
X108603800Y-113914330D01*
X108601501Y-113910029D01*
X108600083Y-113905355D01*
X108599000Y-113894359D01*
X108599000Y-113605641D01*
X108600083Y-113594645D01*
X108601501Y-113589971D01*
X108603800Y-113585670D01*
X108609029Y-113579298D01*
X108622643Y-113558924D01*
X108632020Y-113536285D01*
X108636800Y-113512251D01*
X108636800Y-113487747D01*
X108632019Y-113463714D01*
X108622642Y-113441075D01*
X108609029Y-113420702D01*
X108603800Y-113414330D01*
X108601501Y-113410029D01*
X108600083Y-113405355D01*
X108599000Y-113394359D01*
X108599000Y-113105641D01*
X108600083Y-113094645D01*
X108601501Y-113089971D01*
X108603800Y-113085670D01*
X108609029Y-113079298D01*
X108622643Y-113058924D01*
X108632020Y-113036285D01*
X108636800Y-113012251D01*
X108636800Y-112987747D01*
X108632019Y-112963714D01*
X108622642Y-112941075D01*
X108609029Y-112920702D01*
X108603800Y-112914330D01*
X108601501Y-112910029D01*
X108600083Y-112905355D01*
X108599000Y-112894359D01*
X108599000Y-112605641D01*
X108600083Y-112594645D01*
X108601501Y-112589971D01*
X108603800Y-112585670D01*
X108609029Y-112579298D01*
X108622643Y-112558924D01*
X108632020Y-112536285D01*
X108636800Y-112512251D01*
X108636800Y-112487747D01*
X108632019Y-112463714D01*
X108622642Y-112441075D01*
X108609029Y-112420702D01*
X108603800Y-112414330D01*
X108601501Y-112410029D01*
X108600083Y-112405355D01*
X108599000Y-112394359D01*
X108599000Y-112105641D01*
X108600083Y-112094645D01*
X108601501Y-112089971D01*
X108603800Y-112085670D01*
X108609029Y-112079298D01*
X108622643Y-112058924D01*
X108632020Y-112036285D01*
X108636800Y-112012251D01*
X108636800Y-111987747D01*
X108632019Y-111963714D01*
X108622642Y-111941075D01*
X108609029Y-111920702D01*
X108603800Y-111914330D01*
X108601501Y-111910029D01*
X108600083Y-111905355D01*
X108599000Y-111894359D01*
X108599000Y-111605641D01*
X108600083Y-111594645D01*
X108601501Y-111589971D01*
X108603800Y-111585670D01*
X108609029Y-111579298D01*
X108622643Y-111558924D01*
X108632020Y-111536285D01*
X108636800Y-111512251D01*
X108636800Y-111487747D01*
X108632019Y-111463714D01*
X108622642Y-111441075D01*
X108609029Y-111420702D01*
X108603800Y-111414330D01*
X108601501Y-111410029D01*
X108600083Y-111405355D01*
X108599000Y-111394359D01*
X108599000Y-111105641D01*
X108600083Y-111094645D01*
X108601501Y-111089971D01*
X108603800Y-111085670D01*
X108609029Y-111079298D01*
X108622643Y-111058924D01*
X108632020Y-111036285D01*
X108636800Y-111012251D01*
X108636800Y-110987747D01*
X108632019Y-110963714D01*
X108622642Y-110941075D01*
X108609029Y-110920702D01*
X108603800Y-110914330D01*
X108601501Y-110910029D01*
X108600083Y-110905355D01*
X108599000Y-110894359D01*
X108599000Y-110605641D01*
X108600083Y-110594645D01*
X108601501Y-110589971D01*
X108603800Y-110585670D01*
X108609029Y-110579298D01*
X108622643Y-110558924D01*
X108632020Y-110536285D01*
X108636800Y-110512251D01*
X108636800Y-110487747D01*
X108632019Y-110463714D01*
X108622642Y-110441075D01*
X108609029Y-110420702D01*
X108603800Y-110414330D01*
X108601501Y-110410029D01*
X108600083Y-110405355D01*
X108599000Y-110394359D01*
X108599000Y-110105641D01*
X108600083Y-110094645D01*
X108601501Y-110089971D01*
X108603800Y-110085670D01*
X108609029Y-110079298D01*
X108622643Y-110058924D01*
X108632020Y-110036285D01*
X108636800Y-110012251D01*
X108636800Y-109987747D01*
X108632019Y-109963714D01*
X108622642Y-109941075D01*
X108609029Y-109920702D01*
X108603800Y-109914330D01*
X108601501Y-109910029D01*
X108600083Y-109905355D01*
X108599000Y-109894359D01*
X108599000Y-109605641D01*
X108600083Y-109594645D01*
X108601501Y-109589971D01*
X108603800Y-109585670D01*
X108609029Y-109579298D01*
X108622643Y-109558924D01*
X108632020Y-109536285D01*
X108636800Y-109512251D01*
X108636800Y-109487747D01*
X108632019Y-109463714D01*
X108622642Y-109441075D01*
X108609029Y-109420702D01*
X108603800Y-109414330D01*
X108601501Y-109410029D01*
X108600083Y-109405355D01*
X108599000Y-109394359D01*
X108599000Y-109105641D01*
X108600083Y-109094645D01*
X108601501Y-109089971D01*
X108603800Y-109085669D01*
X108606896Y-109081896D01*
X108610669Y-109078800D01*
X108614971Y-109076501D01*
X108619645Y-109075083D01*
X108630641Y-109074000D01*
X109619359Y-109074000D01*
X109630355Y-109075083D01*
X109635029Y-109076501D01*
X109639330Y-109078800D01*
X109644849Y-109083329D01*
X109665223Y-109096943D01*
X109687862Y-109106320D01*
X109711895Y-109111101D01*
X109736400Y-109111101D01*
X109760433Y-109106321D01*
X109783072Y-109096943D01*
X109803446Y-109083330D01*
X109820773Y-109066003D01*
X109834387Y-109045629D01*
X109843764Y-109022990D01*
X109848545Y-108998955D01*
X109852267Y-108961160D01*
X109860153Y-108935164D01*
X109872964Y-108911197D01*
X109890197Y-108890197D01*
X109911197Y-108872964D01*
X109935164Y-108860153D01*
X109961160Y-108852267D01*
X109998955Y-108848545D01*
X110022988Y-108843765D01*
X110045627Y-108834388D01*
X110066002Y-108820774D01*
X110083329Y-108803447D01*
X110096943Y-108783073D01*
X110106320Y-108760434D01*
X110111101Y-108736401D01*
X110111101Y-108711897D01*
X110106321Y-108687864D01*
X110096944Y-108665225D01*
X110083329Y-108644849D01*
X110078800Y-108639330D01*
X110076501Y-108635029D01*
X110075083Y-108630355D01*
X110074000Y-108619359D01*
X110074000Y-107630641D01*
X110075083Y-107619645D01*
X110076501Y-107614971D01*
X110078800Y-107610669D01*
X110081896Y-107606896D01*
X110085669Y-107603800D01*
X110089971Y-107601501D01*
X110094645Y-107600083D01*
X110105641Y-107599000D01*
X110394359Y-107599000D01*
X110405355Y-107600083D01*
G37*
G36*
X146226000Y-116226000D02*
G01*
X144774000Y-116226000D01*
X144774000Y-114774000D01*
X146226000Y-114774000D01*
X146226000Y-116226000D01*
G37*
G36*
X91461766Y-114661899D02*
G01*
X91593888Y-114716626D01*
X91593890Y-114716627D01*
X91712798Y-114796079D01*
X91813921Y-114897202D01*
X91867247Y-114977010D01*
X91893374Y-115016112D01*
X91948101Y-115148234D01*
X91976000Y-115288494D01*
X91976000Y-115431506D01*
X91948101Y-115571766D01*
X91893374Y-115703888D01*
X91893373Y-115703890D01*
X91813921Y-115822798D01*
X91712798Y-115923921D01*
X91593890Y-116003373D01*
X91593889Y-116003374D01*
X91593888Y-116003374D01*
X91461766Y-116058101D01*
X91321506Y-116086000D01*
X91178494Y-116086000D01*
X91038234Y-116058101D01*
X90906112Y-116003374D01*
X90906111Y-116003374D01*
X90906110Y-116003373D01*
X90787202Y-115923921D01*
X90686079Y-115822798D01*
X90606627Y-115703890D01*
X90606626Y-115703888D01*
X90551899Y-115571766D01*
X90524000Y-115431506D01*
X90524000Y-115288494D01*
X90551899Y-115148234D01*
X90606626Y-115016112D01*
X90632753Y-114977010D01*
X90686079Y-114897202D01*
X90787202Y-114796079D01*
X90906110Y-114716627D01*
X90906112Y-114716626D01*
X91038234Y-114661899D01*
X91178494Y-114634000D01*
X91321506Y-114634000D01*
X91461766Y-114661899D01*
G37*
G36*
X145711766Y-112801899D02*
G01*
X145840368Y-112855168D01*
X145843890Y-112856627D01*
X145962798Y-112936079D01*
X146063921Y-113037202D01*
X146114641Y-113113110D01*
X146143374Y-113156112D01*
X146198101Y-113288234D01*
X146226000Y-113428494D01*
X146226000Y-113571506D01*
X146198101Y-113711766D01*
X146152110Y-113822798D01*
X146143373Y-113843890D01*
X146063921Y-113962798D01*
X145962798Y-114063921D01*
X145843890Y-114143373D01*
X145843889Y-114143374D01*
X145843888Y-114143374D01*
X145711766Y-114198101D01*
X145571506Y-114226000D01*
X145428494Y-114226000D01*
X145288234Y-114198101D01*
X145156112Y-114143374D01*
X145156111Y-114143374D01*
X145156110Y-114143373D01*
X145037202Y-114063921D01*
X144936079Y-113962798D01*
X144856627Y-113843890D01*
X144847890Y-113822798D01*
X144801899Y-113711766D01*
X144774000Y-113571506D01*
X144774000Y-113428494D01*
X144801899Y-113288234D01*
X144856626Y-113156112D01*
X144885359Y-113113110D01*
X144936079Y-113037202D01*
X145037202Y-112936079D01*
X145156110Y-112856627D01*
X145159632Y-112855168D01*
X145288234Y-112801899D01*
X145428494Y-112774000D01*
X145571506Y-112774000D01*
X145711766Y-112801899D01*
G37*
G36*
X91461766Y-112661899D02*
G01*
X91593888Y-112716626D01*
X91593890Y-112716627D01*
X91712798Y-112796079D01*
X91813921Y-112897202D01*
X91893373Y-113016110D01*
X91893374Y-113016112D01*
X91948101Y-113148234D01*
X91976000Y-113288494D01*
X91976000Y-113431506D01*
X91948101Y-113571766D01*
X91893374Y-113703888D01*
X91893373Y-113703890D01*
X91813921Y-113822798D01*
X91712798Y-113923921D01*
X91593890Y-114003373D01*
X91593889Y-114003374D01*
X91593888Y-114003374D01*
X91461766Y-114058101D01*
X91321506Y-114086000D01*
X91178494Y-114086000D01*
X91038234Y-114058101D01*
X90906112Y-114003374D01*
X90906111Y-114003374D01*
X90906110Y-114003373D01*
X90787202Y-113923921D01*
X90686079Y-113822798D01*
X90606627Y-113703890D01*
X90606626Y-113703888D01*
X90551899Y-113571766D01*
X90524000Y-113431506D01*
X90524000Y-113288494D01*
X90551899Y-113148234D01*
X90606626Y-113016112D01*
X90606627Y-113016110D01*
X90686079Y-112897202D01*
X90787202Y-112796079D01*
X90906110Y-112716627D01*
X90906112Y-112716626D01*
X91038234Y-112661899D01*
X91178494Y-112634000D01*
X91321506Y-112634000D01*
X91461766Y-112661899D01*
G37*
G36*
X145711766Y-110801899D02*
G01*
X145840368Y-110855168D01*
X145843890Y-110856627D01*
X145962798Y-110936079D01*
X146063921Y-111037202D01*
X146114641Y-111113110D01*
X146143374Y-111156112D01*
X146198101Y-111288234D01*
X146226000Y-111428494D01*
X146226000Y-111571506D01*
X146198101Y-111711766D01*
X146152110Y-111822798D01*
X146143373Y-111843890D01*
X146063921Y-111962798D01*
X145962798Y-112063921D01*
X145843890Y-112143373D01*
X145843889Y-112143374D01*
X145843888Y-112143374D01*
X145711766Y-112198101D01*
X145571506Y-112226000D01*
X145428494Y-112226000D01*
X145288234Y-112198101D01*
X145156112Y-112143374D01*
X145156111Y-112143374D01*
X145156110Y-112143373D01*
X145037202Y-112063921D01*
X144936079Y-111962798D01*
X144856627Y-111843890D01*
X144847890Y-111822798D01*
X144801899Y-111711766D01*
X144774000Y-111571506D01*
X144774000Y-111428494D01*
X144801899Y-111288234D01*
X144856626Y-111156112D01*
X144885359Y-111113110D01*
X144936079Y-111037202D01*
X145037202Y-110936079D01*
X145156110Y-110856627D01*
X145159632Y-110855168D01*
X145288234Y-110801899D01*
X145428494Y-110774000D01*
X145571506Y-110774000D01*
X145711766Y-110801899D01*
G37*
G36*
X91461766Y-110661899D02*
G01*
X91593888Y-110716626D01*
X91593890Y-110716627D01*
X91712798Y-110796079D01*
X91813921Y-110897202D01*
X91893373Y-111016110D01*
X91893374Y-111016112D01*
X91948101Y-111148234D01*
X91976000Y-111288494D01*
X91976000Y-111431506D01*
X91948101Y-111571766D01*
X91893374Y-111703888D01*
X91893373Y-111703890D01*
X91813921Y-111822798D01*
X91712798Y-111923921D01*
X91593890Y-112003373D01*
X91593889Y-112003374D01*
X91593888Y-112003374D01*
X91461766Y-112058101D01*
X91321506Y-112086000D01*
X91178494Y-112086000D01*
X91038234Y-112058101D01*
X90906112Y-112003374D01*
X90906111Y-112003374D01*
X90906110Y-112003373D01*
X90787202Y-111923921D01*
X90686079Y-111822798D01*
X90606627Y-111703890D01*
X90606626Y-111703888D01*
X90551899Y-111571766D01*
X90524000Y-111431506D01*
X90524000Y-111288494D01*
X90551899Y-111148234D01*
X90606626Y-111016112D01*
X90606627Y-111016110D01*
X90686079Y-110897202D01*
X90787202Y-110796079D01*
X90906110Y-110716627D01*
X90906112Y-110716626D01*
X91038234Y-110661899D01*
X91178494Y-110634000D01*
X91321506Y-110634000D01*
X91461766Y-110661899D01*
G37*
G36*
X139211766Y-109301899D02*
G01*
X139340368Y-109355168D01*
X139343890Y-109356627D01*
X139462798Y-109436079D01*
X139563921Y-109537202D01*
X139614641Y-109613110D01*
X139643374Y-109656112D01*
X139698101Y-109788234D01*
X139726000Y-109928494D01*
X139726000Y-110071506D01*
X139698101Y-110211766D01*
X139645813Y-110338000D01*
X139643373Y-110343890D01*
X139563921Y-110462798D01*
X139462798Y-110563921D01*
X139343890Y-110643373D01*
X139343889Y-110643374D01*
X139343888Y-110643374D01*
X139211766Y-110698101D01*
X139071506Y-110726000D01*
X138928494Y-110726000D01*
X138788234Y-110698101D01*
X138656112Y-110643374D01*
X138656111Y-110643374D01*
X138656110Y-110643373D01*
X138537202Y-110563921D01*
X138436079Y-110462798D01*
X138356627Y-110343890D01*
X138354187Y-110338000D01*
X138301899Y-110211766D01*
X138274000Y-110071506D01*
X138274000Y-109928494D01*
X138301899Y-109788234D01*
X138356626Y-109656112D01*
X138385359Y-109613110D01*
X138436079Y-109537202D01*
X138537202Y-109436079D01*
X138656110Y-109356627D01*
X138659632Y-109355168D01*
X138788234Y-109301899D01*
X138928494Y-109274000D01*
X139071506Y-109274000D01*
X139211766Y-109301899D01*
G37*
G36*
X145711766Y-108801899D02*
G01*
X145843888Y-108856626D01*
X145843890Y-108856627D01*
X145962798Y-108936079D01*
X146063921Y-109037202D01*
X146110104Y-109106320D01*
X146143374Y-109156112D01*
X146198101Y-109288234D01*
X146226000Y-109428494D01*
X146226000Y-109571506D01*
X146198101Y-109711766D01*
X146145813Y-109838000D01*
X146143373Y-109843890D01*
X146063921Y-109962798D01*
X145962798Y-110063921D01*
X145843890Y-110143373D01*
X145843889Y-110143374D01*
X145843888Y-110143374D01*
X145711766Y-110198101D01*
X145571506Y-110226000D01*
X145428494Y-110226000D01*
X145288234Y-110198101D01*
X145156112Y-110143374D01*
X145156111Y-110143374D01*
X145156110Y-110143373D01*
X145037202Y-110063921D01*
X144936079Y-109962798D01*
X144856627Y-109843890D01*
X144854187Y-109838000D01*
X144801899Y-109711766D01*
X144774000Y-109571506D01*
X144774000Y-109428494D01*
X144801899Y-109288234D01*
X144856626Y-109156112D01*
X144889896Y-109106320D01*
X144936079Y-109037202D01*
X145037202Y-108936079D01*
X145156110Y-108856627D01*
X145156112Y-108856626D01*
X145288234Y-108801899D01*
X145428494Y-108774000D01*
X145571506Y-108774000D01*
X145711766Y-108801899D01*
G37*
G36*
X91976000Y-110086000D02*
G01*
X90524000Y-110086000D01*
X90524000Y-108634000D01*
X91976000Y-108634000D01*
X91976000Y-110086000D01*
G37*
G36*
X128386000Y-109971000D02*
G01*
X126124000Y-109971000D01*
X126124000Y-108749000D01*
X128386000Y-108749000D01*
X128386000Y-109971000D01*
G37*
G36*
X135116000Y-109971000D02*
G01*
X132854000Y-109971000D01*
X132854000Y-108749000D01*
X135116000Y-108749000D01*
X135116000Y-109971000D01*
G37*
G36*
X139726000Y-108726000D02*
G01*
X138274000Y-108726000D01*
X138274000Y-107274000D01*
X139726000Y-107274000D01*
X139726000Y-108726000D01*
G37*
G36*
X145711766Y-106801899D02*
G01*
X145843888Y-106856626D01*
X145843890Y-106856627D01*
X145962798Y-106936079D01*
X146063921Y-107037202D01*
X146063922Y-107037204D01*
X146143374Y-107156112D01*
X146198101Y-107288234D01*
X146226000Y-107428494D01*
X146226000Y-107571506D01*
X146198101Y-107711766D01*
X146143374Y-107843888D01*
X146143373Y-107843890D01*
X146063921Y-107962798D01*
X145962798Y-108063921D01*
X145843890Y-108143373D01*
X145843889Y-108143374D01*
X145843888Y-108143374D01*
X145711766Y-108198101D01*
X145571506Y-108226000D01*
X145428494Y-108226000D01*
X145288234Y-108198101D01*
X145156112Y-108143374D01*
X145156111Y-108143374D01*
X145156110Y-108143373D01*
X145037202Y-108063921D01*
X144936079Y-107962798D01*
X144856627Y-107843890D01*
X144856626Y-107843888D01*
X144801899Y-107711766D01*
X144774000Y-107571506D01*
X144774000Y-107428494D01*
X144801899Y-107288234D01*
X144856626Y-107156112D01*
X144936078Y-107037204D01*
X144936079Y-107037202D01*
X145037202Y-106936079D01*
X145156110Y-106856627D01*
X145156112Y-106856626D01*
X145288234Y-106801899D01*
X145428494Y-106774000D01*
X145571506Y-106774000D01*
X145711766Y-106801899D01*
G37*
M02*
